<?xml version="1.0" encoding="UTF-8"?><svg id="_レイヤー_2" xmlns="http://www.w3.org/2000/svg" viewBox="0 0 289.03 302.13"><g id="line"><path d="M168.87,171.62H51.47c-28.38,0-51.47-23.09-51.47-51.47,0-23.54,16.25-44.07,38.62-49.84-1.72-5.31-2.58-10.84-2.58-16.49C36.03,24.14,60.17,0,89.84,0c19.18,0,36.89,10.32,46.47,26.69,6.71-3.97,14.3-6.04,22.22-6.04,24.19,0,43.87,19.68,43.87,43.87,0,2.24-.17,4.47-.51,6.67,21.14,6.82,35.55,26.36,35.55,48.95,0,2.49-2.01,4.5-4.5,4.5s-4.5-2.01-4.5-4.5c0-19.86-13.5-36.87-32.82-41.36-1.18-.27-2.2-1.01-2.83-2.05-.63-1.04-.81-2.28-.51-3.46.74-2.85,1.11-5.79,1.11-8.76,0-19.23-15.64-34.87-34.87-34.87-7.71,0-15.03,2.47-21.15,7.15-1.09.83-2.49,1.12-3.82.79-1.33-.33-2.43-1.24-3-2.49-7.3-15.86-23.28-26.11-40.72-26.11-24.71,0-44.81,20.1-44.81,44.81,0,6.26,1.28,12.33,3.79,18.04.57,1.29.5,2.77-.18,4-.68,1.23-1.9,2.07-3.29,2.27-20.72,2.99-36.35,21.06-36.35,42.03,0,23.42,19.05,42.47,42.47,42.47h117.39c2.49,0,4.5,2.01,4.5,4.5s-2.01,4.5-4.5,4.5Z"/><path d="M216.18,175.4c0-3.35-2.72-6.07-6.07-6.07s-6.07,2.72-6.07,6.07,2.72,6.07,6.07,6.07,6.07-2.72,6.07-6.07Z"/><path d="M255.45,175.4c0-3.35-2.72-6.07-6.07-6.07s-6.07,2.72-6.07,6.07,2.72,6.07,6.07,6.07,6.07-2.72,6.07-6.07Z"/><path d="M240.12,197.78h-20.76c-2.49,0-4.5-2.01-4.5-4.5s2.01-4.5,4.5-4.5h20.76c2.49,0,4.5,2.01,4.5,4.5s-2.01,4.5-4.5,4.5Z"/><path d="M229.75,302.13c-32.69,0-59.29-24.94-59.29-55.59,0-16.18,7.6-31.58,20.56-42.08-5.66-7.49-8.73-16.47-8.73-25.74,0-24.57,21.29-44.55,47.45-44.55s47.45,19.99,47.45,44.55c0,9.27-3.07,18.25-8.73,25.74,12.96,10.5,20.56,25.91,20.56,42.08,0,30.65-26.6,55.59-59.29,55.59ZM229.75,143.16c-21.2,0-38.45,15.95-38.45,35.55,0,8.61,3.38,16.92,9.52,23.4.91.96,1.35,2.27,1.21,3.58-.14,1.31-.85,2.5-1.95,3.24-12.91,8.76-20.61,22.82-20.61,37.61,0,25.69,22.56,46.59,50.29,46.59s50.29-20.9,50.29-46.59c0-14.79-7.71-28.85-20.61-37.61-1.09-.74-1.8-1.92-1.95-3.24-.14-1.31.3-2.62,1.21-3.58,6.14-6.48,9.52-14.79,9.52-23.4,0-19.6-17.25-35.55-38.45-35.55Z"/></g></svg>