<?xml version="1.0" encoding="UTF-8"?><svg id="_レイヤー_2" xmlns="http://www.w3.org/2000/svg" viewBox="0 0 313.3 327.49"><g id="line"><path d="M200.89,269.56c-30.04,0-54.48-24.44-54.48-54.48s24.44-54.48,54.48-54.48,54.48,24.44,54.48,54.48-24.44,54.48-54.48,54.48ZM200.89,169.59c-25.08,0-45.48,20.4-45.48,45.48s20.4,45.48,45.48,45.48,45.48-20.4,45.48-45.48-20.4-45.48-45.48-45.48Z"/><path d="M200.89,327.49c-2.49,0-4.5-2.01-4.5-4.5v-34.12c0-2.49,2.01-4.5,4.5-4.5s4.5,2.01,4.5,4.5v34.12c0,2.49-2.01,4.5-4.5,4.5Z"/><path d="M254.85,313.03c-1.56,0-3.07-.81-3.9-2.25l-17.06-29.55c-1.24-2.15-.51-4.9,1.65-6.15,2.15-1.24,4.9-.5,6.15,1.65l17.06,29.55c1.24,2.15.51,4.9-1.65,6.15-.71.41-1.48.6-2.25.6Z"/><path d="M136.97,182.68c-.76,0-1.54-.19-2.25-.6l-11.33-6.54c-2.15-1.24-2.89-4-1.65-6.15,1.24-2.15,3.99-2.89,6.15-1.65l11.33,6.54c2.15,1.24,2.89,4,1.65,6.15-.83,1.44-2.35,2.25-3.9,2.25Z"/><path d="M294.34,273.53c-.76,0-1.54-.19-2.25-.6l-29.55-17.06c-2.15-1.24-2.89-4-1.65-6.15,1.24-2.15,3.99-2.89,6.15-1.65l29.55,17.06c2.15,1.24,2.89,4,1.65,6.15-.83,1.44-2.35,2.25-3.9,2.25Z"/><path d="M127.09,219.58h-34.12c-2.49,0-4.5-2.01-4.5-4.5s2.01-4.5,4.5-4.5h34.12c2.49,0,4.5,2.01,4.5,4.5s-2.01,4.5-4.5,4.5Z"/><path d="M308.8,219.58h-34.12c-2.49,0-4.5-2.01-4.5-4.5s2.01-4.5,4.5-4.5h34.12c2.49,0,4.5,2.01,4.5,4.5s-2.01,4.5-4.5,4.5Z"/><path d="M107.43,273.53c-1.56,0-3.07-.81-3.9-2.25-1.24-2.15-.51-4.9,1.65-6.15l29.55-17.06c2.15-1.24,4.91-.5,6.15,1.65,1.24,2.15.51,4.9-1.65,6.15l-29.55,17.06c-.71.41-1.48.6-2.25.6Z"/><path d="M264.8,182.68c-1.56,0-3.07-.81-3.9-2.25-1.24-2.15-.51-4.9,1.65-6.15l29.55-17.06c2.15-1.24,4.9-.5,6.15,1.65,1.24,2.15.51,4.9-1.65,6.15l-29.55,17.06c-.71.41-1.48.6-2.25.6Z"/><path d="M146.92,313.03c-.76,0-1.54-.19-2.25-.6-2.15-1.24-2.89-4-1.65-6.15l17.06-29.55c1.24-2.15,3.99-2.89,6.15-1.65,2.15,1.24,2.89,4,1.65,6.15l-17.06,29.55c-.83,1.44-2.35,2.25-3.9,2.25Z"/><path d="M237.78,155.67c-.76,0-1.54-.19-2.25-.6-2.15-1.24-2.89-4-1.65-6.15l17.06-29.55c1.24-2.15,3.99-2.89,6.15-1.65,2.15,1.24,2.89,4,1.65,6.15l-17.06,29.55c-.83,1.44-2.35,2.25-3.9,2.25Z"/><path d="M165.81,153.55H46.25c-25.5,0-46.25-20.75-46.25-46.25,0-20.97,14.36-39.28,34.19-44.65-1.44-4.62-2.16-9.41-2.16-14.31C32.03,21.68,53.71,0,80.36,0c17.06,0,32.82,9.09,41.48,23.54,5.94-3.41,12.61-5.19,19.58-5.19,21.78,0,39.5,17.72,39.5,39.5,0,1.87-.13,3.74-.39,5.58,18.78,6.24,31.55,23.7,31.55,43.86,0,25.5-20.75,46.25-46.25,46.25ZM80.36,9c-21.69,0-39.33,17.64-39.33,39.33,0,5.49,1.12,10.82,3.33,15.83.57,1.29.5,2.77-.18,4-.68,1.23-1.9,2.07-3.29,2.27-18.18,2.62-31.88,18.47-31.88,36.86,0,20.54,16.71,37.25,37.25,37.25h119.55c20.54,0,37.25-16.71,37.25-37.25,0-17.42-11.84-32.33-28.79-36.28-1.18-.27-2.2-1.01-2.83-2.05-.63-1.04-.81-2.28-.51-3.46.64-2.49.97-5.06.97-7.66,0-16.82-13.68-30.5-30.5-30.5-6.75,0-13.14,2.16-18.5,6.26-1.09.83-2.49,1.12-3.82.79-1.33-.33-2.43-1.24-3-2.49-6.41-13.92-20.43-22.92-35.74-22.92Z"/><path d="M200.89,269.56c-30.04,0-54.48-24.44-54.48-54.48s24.44-54.48,54.48-54.48,54.48,24.44,54.48,54.48-24.44,54.48-54.48,54.48ZM200.89,169.59c-25.08,0-45.48,20.4-45.48,45.48s20.4,45.48,45.48,45.48,45.48-20.4,45.48-45.48-20.4-45.48-45.48-45.48Z"/></g></svg>