<?xml version="1.0" encoding="UTF-8"?><svg id="_レイヤー_2" xmlns="http://www.w3.org/2000/svg" viewBox="0 0 396.72 233"><g id="line"><path d="M297.79,147.16c-26.6,0-48.24-21.64-48.24-48.24s21.64-48.24,48.24-48.24,48.24,21.64,48.24,48.24-21.64,48.24-48.24,48.24ZM297.79,59.69c-21.63,0-39.24,17.6-39.24,39.24s17.6,39.24,39.24,39.24,39.24-17.6,39.24-39.24-17.6-39.24-39.24-39.24Z"/><path d="M297.79,38.85c-2.49,0-4.5-2.01-4.5-4.5V4.5c0-2.49,2.01-4.5,4.5-4.5s4.5,2.01,4.5,4.5v29.85c0,2.49-2.01,4.5-4.5,4.5Z"/><path d="M297.79,197.85c-2.49,0-4.5-2.01-4.5-4.5v-29.85c0-2.49,2.01-4.5,4.5-4.5s4.5,2.01,4.5,4.5v29.85c0,2.49-2.01,4.5-4.5,4.5Z"/><path d="M330.08,47.51c-.76,0-1.54-.19-2.25-.6-2.15-1.24-2.89-4-1.65-6.15l14.93-25.86c1.24-2.15,4-2.89,6.15-1.65s2.89,4,1.65,6.15l-14.93,25.86c-.83,1.44-2.35,2.25-3.9,2.25Z"/><path d="M250.58,185.2c-.76,0-1.54-.19-2.25-.6-2.15-1.24-2.89-4-1.65-6.15l14.93-25.85c1.24-2.15,4-2.89,6.15-1.65s2.89,4,1.65,6.15l-14.93,25.85c-.83,1.44-2.35,2.25-3.9,2.25Z"/><path d="M353.72,71.14c-1.55,0-3.07-.81-3.9-2.25-1.24-2.15-.5-4.9,1.65-6.15l25.85-14.93c2.15-1.24,4.9-.5,6.15,1.65,1.24,2.15.5,4.9-1.65,6.15l-25.85,14.93c-.71.41-1.48.6-2.25.6Z"/><path d="M216.02,150.64c-1.55,0-3.07-.81-3.9-2.25-1.24-2.15-.5-4.9,1.65-6.15l25.85-14.93c2.15-1.24,4.9-.5,6.15,1.65,1.24,2.15.5,4.9-1.65,6.15l-25.85,14.93c-.71.41-1.48.6-2.25.6Z"/><path d="M392.22,103.42h-29.85c-2.49,0-4.5-2.01-4.5-4.5s2.01-4.5,4.5-4.5h29.85c2.49,0,4.5,2.01,4.5,4.5s-2.01,4.5-4.5,4.5Z"/><path d="M233.22,103.42h-29.85c-2.49,0-4.5-2.01-4.5-4.5s2.01-4.5,4.5-4.5h29.85c2.49,0,4.5,2.01,4.5,4.5s-2.01,4.5-4.5,4.5Z"/><path d="M379.56,150.64c-.76,0-1.54-.19-2.25-.6l-25.85-14.93c-2.15-1.24-2.89-4-1.65-6.15,1.24-2.15,4-2.89,6.15-1.65l25.85,14.93c2.15,1.24,2.89,4,1.65,6.15-.83,1.44-2.35,2.25-3.9,2.25Z"/><path d="M241.87,71.14c-.76,0-1.54-.19-2.25-.6l-25.85-14.93c-2.15-1.24-2.89-4-1.65-6.15,1.24-2.15,4-2.89,6.15-1.65l25.85,14.93c2.15,1.24,2.89,4,1.65,6.15-.83,1.44-2.35,2.25-3.9,2.25Z"/><path d="M345.01,185.2c-1.55,0-3.07-.81-3.9-2.25l-14.93-25.85c-1.24-2.15-.5-4.9,1.65-6.15,2.15-1.24,4.9-.5,6.15,1.65l14.93,25.85c1.24,2.15.5,4.9-1.65,6.15-.71.41-1.48.6-2.25.6Z"/><path d="M265.51,47.51c-1.55,0-3.07-.81-3.9-2.25l-14.93-25.86c-1.24-2.15-.5-4.9,1.65-6.15,2.15-1.24,4.9-.5,6.15,1.65l14.93,25.86c1.24,2.15.5,4.9-1.65,6.15-.71.41-1.48.6-2.25.6Z"/><path d="M145.64,172.66H41.04c-22.63,0-41.04-18.41-41.04-41.04,0-18.41,12.47-34.5,29.78-39.46-1.16-3.92-1.75-7.99-1.75-12.14,0-23.63,19.22-42.85,42.85-42.85,14.94,0,28.76,7.86,36.49,20.4,5.16-2.85,10.92-4.34,16.93-4.34,19.37,0,35.12,15.75,35.12,35.12,0,1.51-.1,3.01-.29,4.5,16.42,5.66,27.55,21.04,27.55,38.76,0,22.63-18.41,41.04-41.04,41.04ZM70.88,46.19c-18.67,0-33.85,15.18-33.85,33.85,0,4.73.96,9.31,2.87,13.63.57,1.29.5,2.77-.18,4s-1.9,2.07-3.29,2.27c-15.63,2.25-27.42,15.88-27.42,31.7,0,17.66,14.37,32.04,32.04,32.04h104.61c17.66,0,32.04-14.37,32.04-32.04,0-14.98-10.18-27.8-24.75-31.19-1.18-.27-2.2-1.01-2.83-2.05-.63-1.04-.81-2.28-.51-3.46.55-2.13.83-4.34.83-6.56,0-14.4-11.72-26.12-26.12-26.12-5.78,0-11.26,1.85-15.84,5.36-1.09.83-2.5,1.12-3.82.79-1.33-.33-2.43-1.24-3-2.49-5.51-11.98-17.59-19.72-30.76-19.72Z"/><path d="M279.35,233h-98.76c-30.08,0-39.57-19.31-40.38-29.51-.13-1.67.67-3.28,2.09-4.17,1.42-.89,3.22-.92,4.66-.08.11.06,11.9,6.75,28.97,6.75h44.94v-14.76c0-1.67.93-3.21,2.41-3.98,1.48-.78,3.27-.67,4.65.28l53.98,37.27c1.62,1.12,2.33,3.16,1.74,5.04-.59,1.88-2.33,3.16-4.3,3.16ZM152.25,211.2c3.62,5.93,11.46,12.81,28.35,12.81h84.32l-35.04-24.2v10.69c0,2.49-2.01,4.5-4.5,4.5h-49.44c-9.69,0-17.85-1.87-23.69-3.8Z"/><path d="M279.35,233h-98.76c-30.08,0-39.57-19.31-40.38-29.51-.13-1.67.67-3.28,2.09-4.17,1.42-.89,3.22-.92,4.66-.08.11.06,11.9,6.75,28.97,6.75h44.94v-14.76c0-1.67.93-3.21,2.41-3.98,1.48-.78,3.27-.67,4.65.28l53.98,37.27c1.62,1.12,2.33,3.16,1.74,5.04-.59,1.88-2.33,3.16-4.3,3.16ZM152.25,211.2c3.62,5.93,11.46,12.81,28.35,12.81h84.32l-35.04-24.2v10.69c0,2.49-2.01,4.5-4.5,4.5h-49.44c-9.69,0-17.85-1.87-23.69-3.8Z"/><path d="M297.79,147.16c-26.6,0-48.24-21.64-48.24-48.24s21.64-48.24,48.24-48.24,48.24,21.64,48.24,48.24-21.64,48.24-48.24,48.24ZM297.79,59.69c-21.63,0-39.24,17.6-39.24,39.24s17.6,39.24,39.24,39.24,39.24-17.6,39.24-39.24-17.6-39.24-39.24-39.24Z"/></g></svg>