<?xml version="1.0" encoding="UTF-8"?><svg id="_レイヤー_2" xmlns="http://www.w3.org/2000/svg" viewBox="0 0 336.52 302.13"><g id="line"><path d="M234.41,124.86c-2.49,0-4.5-2.01-4.5-4.5v-16.16c0-2.49,2.01-4.5,4.5-4.5s4.5,2.01,4.5,4.5v16.16c0,2.49-2.01,4.5-4.5,4.5Z"/><path d="M251.46,302.13c-11.88,0-21.55-9.67-21.55-21.55v-82.33c0-2.49,2.01-4.5,4.5-4.5s4.5,2.01,4.5,4.5v82.33c0,6.92,5.63,12.55,12.55,12.55s12.55-5.63,12.55-12.55c0-2.49,2.01-4.5,4.5-4.5s4.5,2.01,4.5,4.5c0,11.88-9.67,21.55-21.55,21.55Z"/><path d="M293.41,212.17c-1.36,0-2.65-.62-3.5-1.67-3.97-4.92-9.86-7.74-16.16-7.74s-12.19,2.82-16.16,7.74c-.85,1.06-2.14,1.67-3.5,1.67s-2.65-.62-3.5-1.67c-3.97-4.92-9.86-7.74-16.16-7.74s-12.19,2.82-16.17,7.74c-.85,1.06-2.14,1.67-3.5,1.67h0c-1.36,0-2.65-.62-3.5-1.67-3.97-4.92-9.86-7.74-16.16-7.74s-12.19,2.82-16.16,7.74c-.85,1.06-2.14,1.67-3.5,1.67s-2.65-.62-3.5-1.67c-3.97-4.92-9.86-7.74-16.16-7.74-5.95,0-11.62,2.57-15.58,7.05-1.3,1.48-3.42,1.93-5.22,1.13-1.8-.81-2.86-2.69-2.63-4.64,1.92-15.94,7.66-31.43,16.61-44.79,1.38-2.06,4.18-2.62,6.24-1.23s2.62,4.18,1.23,6.24c-6.12,9.13-10.59,19.34-13.19,30.01,3.88-1.8,8.15-2.77,12.52-2.77,7.33,0,14.27,2.66,19.67,7.43,5.4-4.77,12.34-7.43,19.67-7.43s14.27,2.66,19.67,7.43c5.4-4.77,12.34-7.43,19.67-7.43s14.27,2.66,19.67,7.43c5.4-4.77,12.34-7.43,19.67-7.43s14.27,2.66,19.67,7.43c5.4-4.77,12.34-7.43,19.67-7.43,4.37,0,8.65.97,12.53,2.78-10.03-41.54-47.47-71.67-91.19-71.67-3.78,0-7.6.23-11.34.68-2.47.29-4.71-1.46-5.01-3.93s1.46-4.71,3.93-5.01c4.1-.49,8.27-.74,12.42-.74,52,0,95.88,38.88,102.08,90.43.24,1.96-.83,3.84-2.63,4.64-1.8.81-3.91.35-5.22-1.13-3.95-4.48-9.63-7.05-15.58-7.05-6.3,0-12.19,2.82-16.16,7.74-.85,1.06-2.14,1.67-3.5,1.67Z"/><path d="M165.81,153.55H46.25c-25.5,0-46.25-20.75-46.25-46.25,0-20.97,14.36-39.28,34.19-44.65-1.44-4.62-2.16-9.41-2.16-14.31C32.03,21.68,53.71,0,80.36,0c17.06,0,32.82,9.09,41.48,23.54,5.94-3.41,12.61-5.19,19.58-5.19,21.78,0,39.5,17.72,39.5,39.5,0,1.87-.13,3.74-.39,5.58,18.78,6.24,31.55,23.7,31.55,43.86,0,25.5-20.75,46.25-46.25,46.25ZM80.36,9c-21.69,0-39.33,17.64-39.33,39.33,0,5.49,1.12,10.82,3.33,15.83.57,1.29.5,2.77-.18,4s-1.9,2.07-3.29,2.27c-18.18,2.62-31.88,18.47-31.88,36.86,0,20.54,16.71,37.25,37.25,37.25h119.55c20.54,0,37.25-16.71,37.25-37.25,0-17.42-11.84-32.33-28.79-36.28-1.18-.27-2.2-1.01-2.83-2.05s-.81-2.28-.51-3.46c.64-2.49.97-5.07.97-7.66,0-16.82-13.68-30.5-30.5-30.5-6.75,0-13.14,2.16-18.5,6.26-1.09.83-2.49,1.12-3.82.79-1.33-.33-2.43-1.24-3-2.49-6.4-13.92-20.43-22.92-35.74-22.92Z"/></g></svg>