<?xml version="1.0" encoding="UTF-8"?><svg id="_レイヤー_2" xmlns="http://www.w3.org/2000/svg" viewBox="0 0 312.04 293.39"><g id="line"><path d="M234.33,160.44c-2.49,0-4.5-2.01-4.5-4.5v-12.12c0-2.49,2.01-4.5,4.5-4.5s4.5,2.01,4.5,4.5v12.12c0,2.49-2.01,4.5-4.5,4.5Z"/><path d="M247.12,293.39c-9.53,0-17.29-7.75-17.29-17.29v-61.75c0-2.49,2.01-4.5,4.5-4.5s4.5,2.01,4.5,4.5v61.75c0,4.57,3.72,8.29,8.29,8.29s8.29-3.72,8.29-8.29c0-2.49,2.01-4.5,4.5-4.5s4.5,2.01,4.5,4.5c0,9.53-7.75,17.29-17.29,17.29Z"/><path d="M278.58,225.92c-1.36,0-2.65-.62-3.5-1.67-2.77-3.42-6.87-5.39-11.25-5.39s-8.48,1.96-11.25,5.39c-.85,1.06-2.14,1.67-3.5,1.67h0c-1.36,0-2.65-.62-3.5-1.67-2.77-3.42-6.87-5.39-11.25-5.39s-8.48,1.96-11.25,5.39c-.85,1.06-2.14,1.67-3.5,1.67s-2.65-.62-3.5-1.67c-2.77-3.42-6.86-5.39-11.25-5.39s-8.48,1.96-11.25,5.39c-.85,1.06-2.14,1.67-3.5,1.67s-2.65-.62-3.5-1.67c-2.77-3.42-6.87-5.39-11.25-5.39-4.14,0-8.09,1.79-10.84,4.91-1.3,1.48-3.42,1.93-5.21,1.13-1.8-.81-2.86-2.69-2.63-4.64,4.72-39.23,38.11-68.82,77.68-68.82s72.96,29.58,77.68,68.82c.24,1.96-.83,3.84-2.63,4.64-1.8.81-3.91.35-5.21-1.13-2.75-3.12-6.7-4.91-10.84-4.91-4.38,0-8.48,1.96-11.25,5.39-.85,1.06-2.14,1.67-3.5,1.67ZM175.34,209.86c5.44,0,10.61,1.86,14.75,5.22,4.14-3.36,9.31-5.22,14.75-5.22s10.61,1.86,14.75,5.22c4.14-3.36,9.31-5.22,14.75-5.22s10.61,1.86,14.75,5.22c4.14-3.36,9.31-5.22,14.75-5.22s10.61,1.86,14.75,5.22c4.14-3.36,9.31-5.22,14.75-5.22,2.67,0,5.28.46,7.75,1.32-8.15-29.54-35.24-50.74-66.75-50.74s-58.6,21.2-66.75,50.74c2.47-.87,5.08-1.32,7.75-1.32Z"/><path d="M161.12,171.62H51.47c-28.38,0-51.47-23.09-51.47-51.47,0-23.54,16.25-44.07,38.62-49.84-1.72-5.31-2.58-10.84-2.58-16.49C36.03,24.14,60.17,0,89.84,0c19.18,0,36.89,10.32,46.47,26.69,6.71-3.97,14.3-6.04,22.22-6.04,24.19,0,43.87,19.68,43.87,43.87,0,2.24-.17,4.47-.51,6.67,21.14,6.82,35.55,26.36,35.55,48.95,0,2.49-2.01,4.5-4.5,4.5s-4.5-2.01-4.5-4.5c0-19.86-13.5-36.87-32.82-41.36-1.18-.27-2.2-1.01-2.83-2.05-.63-1.04-.81-2.28-.51-3.46.74-2.85,1.11-5.79,1.11-8.76,0-19.23-15.64-34.87-34.87-34.87-7.71,0-15.03,2.47-21.15,7.15-1.09.83-2.49,1.12-3.82.79-1.33-.33-2.43-1.24-3-2.49-7.3-15.86-23.28-26.11-40.72-26.11-24.71,0-44.81,20.1-44.81,44.81,0,6.26,1.28,12.33,3.79,18.04.57,1.29.5,2.77-.18,4-.68,1.23-1.9,2.07-3.29,2.27-20.72,2.99-36.35,21.06-36.35,42.03,0,23.42,19.05,42.47,42.47,42.47h109.65c2.49,0,4.5,2.01,4.5,4.5s-2.01,4.5-4.5,4.5Z"/></g></svg>