<?xml version="1.0" encoding="UTF-8"?><svg id="_レイヤー_2" xmlns="http://www.w3.org/2000/svg" viewBox="0 0 262.83 189.68"><g id="line"><path d="M206.14,189.68H56.69c-31.26,0-56.69-25.43-56.69-56.69,0-26.11,18.15-48.85,43.05-55.03-2-6.01-3.01-12.27-3.01-18.68C40.04,26.59,66.63,0,99.32,0c21.3,0,40.96,11.56,51.45,29.84,7.49-4.53,15.99-6.9,24.87-6.9,26.6,0,48.24,21.64,48.24,48.24,0,2.6-.21,5.2-.62,7.76,23.51,7.39,39.56,29.02,39.56,54.05,0,31.26-25.43,56.69-56.69,56.69ZM99.32,9c-27.73,0-50.28,22.56-50.28,50.28,0,7.02,1.43,13.84,4.26,20.25.57,1.29.5,2.77-.18,4-.68,1.23-1.9,2.07-3.29,2.27-23.27,3.36-40.82,23.64-40.82,47.19,0,26.3,21.4,47.69,47.69,47.69h149.44c26.3,0,47.69-21.4,47.69-47.69,0-22.3-15.15-41.4-36.85-46.44-1.18-.27-2.2-1.01-2.83-2.05s-.81-2.28-.51-3.46c.83-3.2,1.25-6.52,1.25-9.86,0-21.64-17.6-39.24-39.24-39.24-8.68,0-16.91,2.78-23.8,8.05-1.09.83-2.49,1.12-3.82.79-1.33-.33-2.43-1.24-3-2.49-8.19-17.8-26.13-29.3-45.69-29.3Z"/></g></svg>