<?xml version="1.0" encoding="UTF-8"?><svg id="_レイヤー_2" xmlns="http://www.w3.org/2000/svg" viewBox="0 0 243.14 255.58"><g id="line"><path d="M134.67,113.19c-1.15,0-2.3-.44-3.18-1.32-1.76-1.76-1.76-4.61,0-6.36l11.43-11.43c1.76-1.76,4.61-1.76,6.36,0,1.76,1.76,1.76,4.61,0,6.36l-11.43,11.43c-.88.88-2.03,1.32-3.18,1.32Z"/><path d="M33.43,255.58c-5.52,0-11.04-2.1-15.24-6.3-8.4-8.4-8.4-22.07,0-30.47l58.22-58.22c1.76-1.76,4.61-1.76,6.36,0,1.76,1.76,1.76,4.61,0,6.36l-58.22,58.22c-2.37,2.37-3.67,5.52-3.67,8.87s1.31,6.5,3.67,8.87c2.37,2.37,5.52,3.67,8.87,3.67s6.5-1.31,8.87-3.67c1.76-1.76,4.61-1.76,6.36,0,1.76,1.76,1.76,4.61,0,6.36-4.2,4.2-9.72,6.3-15.24,6.3Z"/><path d="M142.55,243.36c-.54,0-1.08-.1-1.6-.29-1.84-.7-3.01-2.52-2.89-4.49.38-5.96-1.82-11.79-6.03-16-4.46-4.45-10.62-6.62-16.9-5.96-1.35.14-2.7-.33-3.66-1.29-.96-.96-1.44-2.31-1.29-3.66.67-6.29-1.5-12.45-5.96-16.9-4.46-4.46-10.62-6.63-16.9-5.96-1.35.14-2.7-.33-3.66-1.29-.96-.96-1.44-2.31-1.29-3.66.67-6.29-1.5-12.45-5.96-16.9-4.45-4.46-10.62-6.62-16.9-5.96-1.35.14-2.7-.33-3.66-1.29-.96-.96-1.44-2.31-1.29-3.66.67-6.29-1.5-12.45-5.96-16.9-4.46-4.46-10.62-6.63-16.91-5.96-1.35.14-2.7-.33-3.66-1.29-.96-.96-1.44-2.31-1.29-3.66.67-6.29-1.5-12.45-5.96-16.9t0,0c-4.2-4.21-10.04-6.41-16-6.03-1.98.11-3.79-1.05-4.49-2.89-.7-1.84-.12-3.93,1.43-5.14,40.84-32.07,99.36-28.53,136.13,8.24,36.77,36.77,40.31,95.29,8.24,136.13-.87,1.11-2.19,1.72-3.54,1.72ZM119.24,207.56c7.19.45,13.97,3.47,19.16,8.66,3.09,3.09,5.43,6.8,6.9,10.83,22.29-36.47,17.12-84.24-13.81-115.16-30.92-30.92-78.7-36.09-115.16-13.81,4.03,1.47,7.73,3.8,10.83,6.9h0s0,0,0,0c5.18,5.18,8.21,11.97,8.65,19.16,7.19.45,13.98,3.47,19.16,8.66,5.18,5.18,8.21,11.97,8.65,19.16,7.19.45,13.98,3.47,19.16,8.66,5.18,5.18,8.21,11.97,8.65,19.16,7.19.45,13.97,3.47,19.16,8.66,5.18,5.18,8.21,11.97,8.65,19.16Z"/><path d="M49.39,65.46c-1.15,0-2.3-.44-3.18-1.32-1.76-1.76-1.76-4.61,0-6.36L101.05,2.93c1.76-1.76,4.61-1.76,6.36,0,1.76,1.76,1.76,4.61,0,6.36l-54.85,54.85c-.88.88-2.03,1.32-3.18,1.32Z"/><path d="M98.58,69.16c-1.15,0-2.3-.44-3.18-1.32-1.76-1.76-1.76-4.61,0-6.36l7.1-7.1c1.76-1.76,4.61-1.76,6.36,0,1.76,1.76,1.76,4.61,0,6.36l-7.1,7.1c-.88.88-2.03,1.32-3.18,1.32Z"/><path d="M124.41,43.33c-1.15,0-2.3-.44-3.18-1.32-1.76-1.76-1.76-4.61,0-6.36L155.56,1.32c1.76-1.76,4.61-1.76,6.36,0,1.76,1.76,1.76,4.61,0,6.36l-34.33,34.33c-.88.88-2.03,1.32-3.18,1.32Z"/><path d="M137.86,82.77c-1.15,0-2.3-.44-3.18-1.32-1.76-1.76-1.76-4.61,0-6.36l57.54-57.54c1.76-1.76,4.61-1.76,6.36,0,1.76,1.76,1.76,4.61,0,6.36l-57.54,57.54c-.88.88-2.03,1.32-3.18,1.32Z"/><path d="M178.3,148.12c-1.15,0-2.3-.44-3.18-1.32-1.76-1.76-1.76-4.61,0-6.36l60.34-60.34c1.76-1.76,4.61-1.76,6.36,0,1.76,1.76,1.76,4.61,0,6.36l-60.34,60.34c-.88.88-2.03,1.32-3.18,1.32Z"/><path d="M182.66,196.66c-1.15,0-2.3-.44-3.18-1.32-1.76-1.76-1.76-4.61,0-6.36l55.23-55.23c1.76-1.76,4.61-1.76,6.36,0,1.76,1.76,1.76,4.61,0,6.36l-55.23,55.23c-.88.88-2.03,1.32-3.18,1.32Z"/><path d="M164.11,109.42c-1.15,0-2.3-.44-3.18-1.32-1.76-1.76-1.76-4.61,0-6.36l57.54-57.54c1.76-1.76,4.61-1.76,6.36,0,1.76,1.76,1.76,4.61,0,6.36l-57.54,57.54c-.88.88-2.03,1.32-3.18,1.32Z"/></g></svg>