<?xml version="1.0" encoding="UTF-8"?><svg id="_レイヤー_2" xmlns="http://www.w3.org/2000/svg" viewBox="0 0 242.75 206.33"><g id="line"><path d="M217.06,167.18c-1.44,0-2.86-.69-3.73-1.98-1.39-2.06-.85-4.86,1.21-6.25,12.03-8.13,19.21-21.63,19.21-36.13,0-20.37-13.84-37.81-33.66-42.42-1.18-.27-2.2-1.01-2.83-2.05s-.81-2.28-.51-3.46c.75-2.92,1.14-5.94,1.14-8.99,0-19.73-16.05-35.78-35.78-35.78-7.92,0-15.42,2.54-21.71,7.34-1.09.83-2.49,1.12-3.82.79-1.33-.33-2.43-1.24-3-2.49-7.48-16.27-23.87-26.78-41.76-26.78-25.34,0-45.95,20.61-45.95,45.95,0,6.42,1.31,12.64,3.89,18.5.57,1.29.5,2.77-.18,4s-1.9,2.07-3.29,2.27c-21.26,3.07-37.28,21.6-37.28,43.11,0,13.52,6.12,26.05,16.8,34.37,1.96,1.53,2.31,4.36.78,6.32s-4.36,2.31-6.32.78C7.39,154.25,0,139.14,0,122.83c0-24.08,16.65-45.06,39.54-50.93-1.78-5.46-2.67-11.14-2.67-16.95C36.87,24.65,61.52,0,91.82,0c19.62,0,37.74,10.58,47.51,27.35,6.87-4.08,14.65-6.22,22.78-6.22,24.69,0,44.78,20.09,44.78,44.78,0,2.31-.18,4.62-.53,6.9,21.63,6.94,36.39,26.92,36.39,50.02,0,17.49-8.66,33.78-23.17,43.58-.77.52-1.65.77-2.52.77Z"/><path d="M85.36,187.69c-2.49,0-4.5-2.01-4.5-4.5v-57.3c0-2.49,2.01-4.5,4.5-4.5s4.5,2.01,4.5,4.5v57.3c0,2.49-2.01,4.5-4.5,4.5Z"/><path d="M85.36,130.38c-1.15,0-2.3-.44-3.18-1.32l-12.25-12.25c-1.76-1.76-1.76-4.61,0-6.36,1.76-1.76,4.61-1.76,6.36,0l9.07,9.07,9.07-9.07c1.76-1.76,4.61-1.76,6.36,0s1.76,4.61,0,6.36l-12.25,12.25c-.88.88-2.03,1.32-3.18,1.32Z"/><path d="M97.61,199.94c-1.15,0-2.3-.44-3.18-1.32l-9.07-9.07-9.07,9.07c-1.76,1.76-4.61,1.76-6.36,0-1.76-1.76-1.76-4.61,0-6.36l12.25-12.25c.84-.84,1.99-1.32,3.18-1.32s2.34.47,3.18,1.32l12.25,12.25c1.76,1.76,1.76,4.61,0,6.36-.88.88-2.03,1.32-3.18,1.32Z"/><path d="M110.16,173.36c-.76,0-1.54-.19-2.25-.6l-49.63-28.65c-2.15-1.24-2.89-4-1.65-6.15,1.24-2.15,3.99-2.89,6.15-1.65l49.63,28.65c2.15,1.24,2.89,4,1.65,6.15-.83,1.44-2.35,2.25-3.9,2.25Z"/><path d="M43.81,149.2c-1.99,0-3.81-1.33-4.34-3.34-.64-2.4.78-4.87,3.18-5.51l12.39-3.32-3.32-12.39c-.64-2.4.78-4.87,3.18-5.51,2.4-.64,4.87.78,5.51,3.18l4.48,16.73c.64,2.4-.78,4.87-3.18,5.51l-16.73,4.48c-.39.1-.78.15-1.17.15Z"/><path d="M114.65,190.1c-1.99,0-3.81-1.33-4.34-3.34l-4.48-16.74c-.64-2.4.78-4.87,3.18-5.51l16.73-4.48c2.4-.64,4.87.78,5.51,3.18.64,2.4-.78,4.87-3.18,5.51l-12.39,3.32,3.32,12.39c.64,2.4-.78,4.87-3.18,5.51-.39.1-.78.15-1.17.15Z"/><path d="M60.55,173.36c-1.56,0-3.07-.81-3.9-2.25-1.24-2.15-.51-4.9,1.65-6.15l49.63-28.65c2.15-1.24,4.91-.5,6.15,1.65,1.24,2.15.51,4.9-1.65,6.15l-49.63,28.65c-.71.41-1.48.6-2.25.6Z"/><path d="M56.06,190.1c-.39,0-.78-.05-1.17-.15-2.4-.64-3.83-3.11-3.18-5.51l3.32-12.39-12.39-3.32c-2.4-.64-3.83-3.11-3.18-5.51.64-2.4,3.11-3.82,5.51-3.18l16.73,4.48c2.4.64,3.83,3.11,3.18,5.51l-4.48,16.74c-.54,2.01-2.36,3.34-4.34,3.34Z"/><path d="M126.91,149.2c-.39,0-.78-.05-1.17-.15l-16.73-4.48c-1.15-.31-2.14-1.06-2.73-2.1s-.76-2.26-.45-3.42l4.48-16.73c.64-2.4,3.11-3.82,5.51-3.18,2.4.64,3.83,3.11,3.18,5.51l-3.32,12.39,12.39,3.32c2.4.64,3.83,3.11,3.18,5.51-.54,2.01-2.36,3.34-4.34,3.34Z"/><path d="M149.63,136.19c-9.78,0-17.74-7.96-17.74-17.74,0-14.55,13.81-30.01,14.4-30.66.85-.94,2.07-1.48,3.34-1.48s2.49.54,3.34,1.48c.59.65,14.4,16.11,14.4,30.66,0,9.78-7.96,17.74-17.74,17.74ZM149.63,98c-3.87,5.3-8.74,13.58-8.74,20.45,0,4.82,3.92,8.74,8.74,8.74s8.74-3.92,8.74-8.74c0-6.87-4.88-15.15-8.74-20.45Z"/><path d="M180.29,206.33c-14.26,0-25.85-11.6-25.85-25.85,0-22.41,21.6-46.58,22.52-47.6.85-.94,2.07-1.48,3.34-1.48s2.49.54,3.34,1.48c.92,1.02,22.52,25.19,22.52,47.6,0,14.26-11.6,25.85-25.85,25.85ZM180.29,142.96c-5.74,7.34-16.86,23.39-16.86,37.52,0,9.29,7.56,16.85,16.85,16.85s16.85-7.56,16.85-16.85c0-14.16-11.11-30.18-16.85-37.52Z"/></g></svg>