<?xml version="1.0" encoding="UTF-8"?><svg id="_レイヤー_2" xmlns="http://www.w3.org/2000/svg" viewBox="0 0 393.29 233"><g id="line"><path d="M89.91,38.94c-2.49,0-4.5-2.01-4.5-4.5v-14.14c0-2.49,2.01-4.5,4.5-4.5s4.5,2.01,4.5,4.5v14.14c0,2.49-2.01,4.5-4.5,4.5Z"/><path d="M104.83,194.05c-10.71,0-19.42-8.71-19.42-19.42v-72.04c0-2.49,2.01-4.5,4.5-4.5s4.5,2.01,4.5,4.5v72.04c0,5.74,4.67,10.42,10.42,10.42s10.42-4.67,10.42-10.42c0-2.49,2.01-4.5,4.5-4.5s4.5,2.01,4.5,4.5c0,10.71-8.71,19.42-19.42,19.42Z"/><path d="M141.53,115.33c-1.36,0-2.65-.62-3.5-1.67-3.37-4.17-8.36-6.56-13.71-6.56s-10.34,2.39-13.71,6.56c-.85,1.06-2.14,1.67-3.5,1.67s-2.65-.62-3.5-1.67c-3.37-4.17-8.36-6.56-13.71-6.56s-10.34,2.39-13.71,6.56c-.85,1.06-2.14,1.67-3.5,1.67h0c-1.36,0-2.65-.62-3.5-1.67-3.37-4.17-8.36-6.56-13.71-6.56s-10.34,2.39-13.71,6.56c-.85,1.06-2.14,1.67-3.5,1.67s-2.65-.62-3.5-1.67c-3.37-4.17-8.36-6.56-13.71-6.56-5.04,0-9.86,2.18-13.21,5.98-1.3,1.48-3.42,1.93-5.21,1.13-1.8-.81-2.86-2.69-2.63-4.64C5.49,64.17,44.13,29.94,89.91,29.94s84.42,34.23,89.88,79.62c.24,1.96-.83,3.84-2.63,4.64-1.8.8-3.91.35-5.21-1.13-3.35-3.8-8.16-5.98-13.21-5.98-5.34,0-10.34,2.39-13.71,6.56-.85,1.06-2.14,1.67-3.5,1.67ZM89.91,98.09c6.38,0,12.44,2.26,17.21,6.32,4.77-4.06,10.82-6.32,17.21-6.32s12.44,2.26,17.21,6.32c4.77-4.06,10.82-6.32,17.21-6.32,3.52,0,6.96.7,10.14,2.02-9.1-35.53-41.36-61.17-78.97-61.17S20.04,64.58,10.94,100.11c3.18-1.32,6.63-2.02,10.14-2.02,6.38,0,12.44,2.26,17.21,6.32,4.77-4.06,10.82-6.32,17.21-6.32s12.44,2.26,17.21,6.32c4.77-4.06,10.82-6.32,17.21-6.32Z"/><path d="M294.37,147.16c-26.6,0-48.24-21.64-48.24-48.24s21.64-48.24,48.24-48.24,48.24,21.64,48.24,48.24-21.64,48.24-48.24,48.24ZM294.37,59.69c-21.63,0-39.24,17.6-39.24,39.24s17.6,39.24,39.24,39.24,39.24-17.6,39.24-39.24-17.6-39.24-39.24-39.24Z"/><path d="M294.37,38.85c-2.49,0-4.5-2.01-4.5-4.5V4.5c0-2.49,2.01-4.5,4.5-4.5s4.5,2.01,4.5,4.5v29.85c0,2.49-2.01,4.5-4.5,4.5Z"/><path d="M294.37,197.85c-2.49,0-4.5-2.01-4.5-4.5v-29.85c0-2.49,2.01-4.5,4.5-4.5s4.5,2.01,4.5,4.5v29.85c0,2.49-2.01,4.5-4.5,4.5Z"/><path d="M326.65,47.51c-.76,0-1.54-.19-2.25-.6-2.15-1.24-2.89-4-1.65-6.15l14.93-25.85c1.24-2.15,4-2.89,6.15-1.65,2.15,1.24,2.89,4,1.65,6.15l-14.93,25.85c-.83,1.44-2.35,2.25-3.9,2.25Z"/><path d="M247.15,185.2c-.76,0-1.54-.19-2.25-.6-2.15-1.24-2.89-4-1.65-6.15l14.93-25.85c1.24-2.15,4-2.89,6.15-1.65,2.15,1.24,2.89,4,1.65,6.15l-14.93,25.85c-.83,1.44-2.35,2.25-3.9,2.25Z"/><path d="M350.29,71.14c-1.55,0-3.07-.81-3.9-2.25-1.24-2.15-.5-4.9,1.65-6.15l25.85-14.93c2.15-1.24,4.9-.5,6.15,1.65,1.24,2.15.5,4.9-1.65,6.15l-25.85,14.93c-.71.41-1.48.6-2.25.6Z"/><path d="M212.6,150.64c-1.55,0-3.07-.81-3.9-2.25-1.24-2.15-.5-4.9,1.65-6.15l25.85-14.93c2.15-1.24,4.9-.5,6.15,1.65,1.24,2.15.5,4.9-1.65,6.15l-25.85,14.93c-.71.41-1.48.6-2.25.6Z"/><path d="M388.79,103.42h-29.85c-2.49,0-4.5-2.01-4.5-4.5s2.01-4.5,4.5-4.5h29.85c2.49,0,4.5,2.01,4.5,4.5s-2.01,4.5-4.5,4.5Z"/><path d="M229.8,103.42h-29.85c-2.49,0-4.5-2.01-4.5-4.5s2.01-4.5,4.5-4.5h29.85c2.49,0,4.5,2.01,4.5,4.5s-2.01,4.5-4.5,4.5Z"/><path d="M376.14,150.64c-.76,0-1.54-.19-2.25-.6l-25.85-14.93c-2.15-1.24-2.89-4-1.65-6.15,1.24-2.15,4-2.89,6.15-1.65l25.85,14.93c2.15,1.24,2.89,4,1.65,6.15-.83,1.44-2.35,2.25-3.9,2.25Z"/><path d="M238.44,71.14c-.76,0-1.54-.19-2.25-.6l-25.85-14.93c-2.15-1.24-2.89-4-1.65-6.15,1.24-2.15,4-2.89,6.15-1.65l25.85,14.93c2.15,1.24,2.89,4,1.65,6.15-.83,1.44-2.35,2.25-3.9,2.25Z"/><path d="M341.58,185.2c-1.55,0-3.07-.81-3.9-2.25l-14.93-25.85c-1.24-2.15-.5-4.9,1.65-6.15,2.15-1.24,4.9-.51,6.15,1.65l14.93,25.85c1.24,2.15.5,4.9-1.65,6.15-.71.41-1.48.6-2.25.6Z"/><path d="M262.09,47.51c-1.55,0-3.07-.81-3.9-2.25l-14.93-25.85c-1.24-2.15-.5-4.9,1.65-6.15,2.15-1.24,4.9-.5,6.15,1.65l14.93,25.85c1.24,2.15.5,4.9-1.65,6.15-.71.41-1.48.6-2.25.6Z"/><path d="M275.92,233h-98.76c-30.08,0-39.57-19.31-40.38-29.52-.13-1.67.67-3.28,2.09-4.17,1.42-.89,3.21-.92,4.66-.08.11.06,11.9,6.75,28.97,6.75h44.94v-14.76c0-1.67.93-3.21,2.41-3.98s3.27-.67,4.65.28l53.98,37.27c1.62,1.12,2.33,3.16,1.74,5.04-.59,1.88-2.33,3.16-4.3,3.16ZM148.82,211.2c3.62,5.93,11.46,12.81,28.35,12.81h84.32l-35.04-24.2v10.69c0,2.49-2.01,4.5-4.5,4.5h-49.44c-9.69,0-17.85-1.87-23.69-3.8Z"/><path d="M275.92,233h-98.76c-30.08,0-39.57-19.31-40.38-29.52-.13-1.67.67-3.28,2.09-4.17,1.42-.89,3.21-.92,4.66-.08.11.06,11.9,6.75,28.97,6.75h44.94v-14.76c0-1.67.93-3.21,2.41-3.98s3.27-.67,4.65.28l53.98,37.27c1.62,1.12,2.33,3.16,1.74,5.04-.59,1.88-2.33,3.16-4.3,3.16ZM148.82,211.2c3.62,5.93,11.46,12.81,28.35,12.81h84.32l-35.04-24.2v10.69c0,2.49-2.01,4.5-4.5,4.5h-49.44c-9.69,0-17.85-1.87-23.69-3.8Z"/><path d="M294.37,147.16c-26.6,0-48.24-21.64-48.24-48.24s21.64-48.24,48.24-48.24,48.24,21.64,48.24,48.24-21.64,48.24-48.24,48.24ZM294.37,59.69c-21.63,0-39.24,17.6-39.24,39.24s17.6,39.24,39.24,39.24,39.24-17.6,39.24-39.24-17.6-39.24-39.24-39.24Z"/></g></svg>