<?xml version="1.0" encoding="UTF-8"?><svg id="_レイヤー_2" xmlns="http://www.w3.org/2000/svg" viewBox="0 0 269.44 355.99"><g id="line"><path d="M102.11,25.16c-2.49,0-4.5-2.01-4.5-4.5V4.5c0-2.49,2.01-4.5,4.5-4.5s4.5,2.01,4.5,4.5v16.16c0,2.49-2.01,4.5-4.5,4.5Z"/><path d="M119.16,202.43c-11.88,0-21.55-9.67-21.55-21.55v-82.33c0-2.49,2.01-4.5,4.5-4.5s4.5,2.01,4.5,4.5v82.33c0,6.92,5.63,12.55,12.55,12.55s12.55-5.63,12.55-12.55c0-2.49,2.01-4.5,4.5-4.5s4.5,2.01,4.5,4.5c0,11.88-9.67,21.55-21.55,21.55Z"/><path d="M161.11,112.47h0c-1.36,0-2.65-.62-3.5-1.67-3.97-4.92-9.86-7.74-16.16-7.74s-12.19,2.82-16.16,7.74c-.85,1.06-2.14,1.67-3.5,1.67h0c-1.36,0-2.65-.62-3.5-1.67-3.97-4.92-9.86-7.74-16.16-7.74s-12.19,2.82-16.17,7.74c-.85,1.06-2.14,1.67-3.5,1.67h0c-1.36,0-2.65-.62-3.5-1.67-3.97-4.92-9.86-7.74-16.16-7.74s-12.19,2.82-16.16,7.74c-.85,1.06-2.14,1.67-3.5,1.67s-2.65-.62-3.5-1.67c-3.97-4.92-9.86-7.74-16.16-7.74-5.95,0-11.62,2.57-15.58,7.05-1.3,1.48-3.42,1.93-5.22,1.13-1.8-.81-2.86-2.69-2.63-4.64C6.23,55.04,50.11,16.16,102.11,16.16s95.88,38.88,102.08,90.43c.24,1.96-.83,3.84-2.63,4.64-1.8.81-3.91.35-5.21-1.13-3.95-4.48-9.63-7.05-15.58-7.05-6.3,0-12.19,2.82-16.16,7.74-.85,1.06-2.14,1.67-3.5,1.67ZM141.44,94.05c7.33,0,14.27,2.66,19.67,7.43,5.4-4.77,12.34-7.43,19.67-7.43,4.38,0,8.65.97,12.53,2.78-10.03-41.54-47.47-71.67-91.2-71.67S20.94,55.29,10.92,96.83c3.89-1.81,8.16-2.78,12.53-2.78,7.33,0,14.27,2.66,19.67,7.43,5.4-4.77,12.34-7.43,19.67-7.43s14.27,2.66,19.67,7.43c5.4-4.77,12.34-7.43,19.67-7.43s14.27,2.66,19.67,7.43c5.4-4.77,12.34-7.43,19.67-7.43Z"/><circle cx="165.71" cy="188.52" r="8.09"/><circle cx="218.08" cy="188.52" r="8.09"/><path d="M205.73,216.86h-27.68c-2.49,0-4.5-2.01-4.5-4.5s2.01-4.5,4.5-4.5h27.68c2.49,0,4.5,2.01,4.5,4.5s-2.01,4.5-4.5,4.5Z"/><path d="M191.89,355.99c-42.76,0-77.55-32.57-77.55-72.61,0-21.59,10.38-42.12,28-55.86-4-5.02-7.08-10.57-9.17-16.56-.82-2.35.42-4.91,2.76-5.73,2.35-.82,4.91.42,5.73,2.76,2.22,6.35,5.77,12.13,10.56,17.19.91.96,1.35,2.27,1.21,3.58-.14,1.31-.85,2.5-1.95,3.24-17.62,11.96-28.14,31.17-28.14,51.38,0,35.08,30.75,63.61,68.55,63.61s68.55-28.54,68.55-63.61c0-20.22-10.52-39.43-28.14-51.38-1.09-.74-1.8-1.92-1.95-3.24-.14-1.31.3-2.62,1.21-3.58,8.45-8.92,13.11-20.37,13.11-32.23,0-26.97-23.67-48.9-52.77-48.9-17.68,0-34.1,8.15-43.93,21.81-1.45,2.02-4.26,2.47-6.28,1.02-2.02-1.45-2.47-4.26-1.02-6.28,11.52-16,30.67-25.55,51.24-25.55,34.06,0,61.77,25.98,61.77,57.9,0,12.51-4.31,24.62-12.23,34.58,17.62,13.74,28.01,34.27,28.01,55.86,0,40.04-34.79,72.61-77.55,72.61Z"/></g></svg>