<?xml version="1.0" encoding="UTF-8"?><svg id="_レイヤー_2" xmlns="http://www.w3.org/2000/svg" viewBox="0 0 303 319.68"><g id="line"><path d="M102.11,25.16c-2.49,0-4.5-2.01-4.5-4.5V4.5c0-2.49,2.01-4.5,4.5-4.5s4.5,2.01,4.5,4.5v16.16c0,2.49-2.01,4.5-4.5,4.5Z"/><path d="M119.16,202.43c-11.88,0-21.55-9.67-21.55-21.55v-82.33c0-2.49,2.01-4.5,4.5-4.5s4.5,2.01,4.5,4.5v82.33c0,6.92,5.63,12.55,12.55,12.55s12.55-5.63,12.55-12.55c0-2.49,2.01-4.5,4.5-4.5s4.5,2.01,4.5,4.5c0,11.88-9.67,21.55-21.55,21.55Z"/><path d="M161.11,112.47c-1.36,0-2.65-.62-3.5-1.67-3.97-4.92-9.86-7.74-16.17-7.74s-12.19,2.82-16.16,7.74c-.85,1.06-2.14,1.67-3.5,1.67h0c-1.36,0-2.65-.62-3.5-1.67-3.97-4.92-9.86-7.74-16.16-7.74s-12.19,2.82-16.17,7.74c-.85,1.06-2.14,1.67-3.5,1.67h0c-1.36,0-2.65-.62-3.5-1.67-3.97-4.92-9.86-7.74-16.16-7.74s-12.19,2.82-16.17,7.74c-.85,1.06-2.14,1.67-3.5,1.67s-2.65-.62-3.5-1.67c-3.97-4.92-9.86-7.74-16.16-7.74-5.95,0-11.62,2.57-15.58,7.05-1.3,1.48-3.42,1.94-5.22,1.13-1.8-.81-2.86-2.69-2.63-4.64C6.23,55.04,50.11,16.16,102.11,16.16s95.88,38.88,102.08,90.43c.24,1.96-.83,3.84-2.63,4.64-1.8.8-3.91.35-5.21-1.13-3.95-4.48-9.63-7.05-15.58-7.05-6.3,0-12.19,2.82-16.16,7.74-.85,1.06-2.14,1.67-3.5,1.67ZM23.45,94.05c7.33,0,14.27,2.66,19.67,7.43,5.4-4.77,12.34-7.43,19.67-7.43s14.27,2.66,19.66,7.43c5.4-4.77,12.34-7.43,19.67-7.43s14.27,2.66,19.67,7.43c5.4-4.77,12.34-7.43,19.67-7.43s14.27,2.66,19.67,7.43c5.4-4.77,12.34-7.43,19.67-7.43,4.38,0,8.65.97,12.53,2.78-10.03-41.54-47.47-71.67-91.2-71.67S20.94,55.29,10.92,96.83c3.89-1.81,8.16-2.78,12.53-2.78Z"/><path d="M256.74,319.68h-119.55c-25.5,0-46.25-20.75-46.25-46.25,0-20.97,14.36-39.28,34.19-44.65-1.44-4.62-2.16-9.41-2.16-14.31,0-2.49,2.01-4.5,4.5-4.5s4.5,2.01,4.5,4.5c0,5.49,1.12,10.82,3.33,15.83.57,1.29.5,2.77-.18,4s-1.9,2.07-3.29,2.27c-18.18,2.62-31.88,18.47-31.88,36.86,0,20.54,16.71,37.25,37.25,37.25h119.55c20.54,0,37.25-16.71,37.25-37.25,0-17.42-11.84-32.33-28.79-36.28-1.18-.27-2.2-1.01-2.83-2.05s-.81-2.28-.51-3.46c.64-2.49.97-5.07.97-7.66,0-16.82-13.68-30.5-30.5-30.5-6.75,0-13.14,2.16-18.5,6.26-1.09.83-2.49,1.12-3.82.79-1.33-.33-2.43-1.24-3-2.49-6.4-13.92-20.43-22.92-35.74-22.92-5.61,0-11.03,1.16-16.1,3.44-2.26,1.02-4.93,0-5.95-2.26-1.02-2.27,0-4.93,2.26-5.95,6.24-2.8,12.9-4.23,19.79-4.23,17.06,0,32.82,9.09,41.48,23.54,5.93-3.41,12.61-5.19,19.58-5.19,21.78,0,39.5,17.72,39.5,39.5,0,1.87-.13,3.74-.39,5.58,18.78,6.24,31.55,23.7,31.55,43.86,0,25.5-20.75,46.25-46.25,46.25Z"/></g></svg>