<?xml version="1.0" encoding="UTF-8"?><svg id="_レイヤー_2" xmlns="http://www.w3.org/2000/svg" viewBox="0 0 387.71 223.2"><g id="line"><path d="M89.91,23.14c-2.49,0-4.5-2.01-4.5-4.5V4.5c0-2.49,2.01-4.5,4.5-4.5s4.5,2.01,4.5,4.5v14.14c0,2.49-2.01,4.5-4.5,4.5Z"/><path d="M104.83,178.25c-10.71,0-19.42-8.71-19.42-19.42v-72.04c0-2.49,2.01-4.5,4.5-4.5s4.5,2.01,4.5,4.5v72.04c0,5.74,4.67,10.42,10.42,10.42s10.42-4.67,10.42-10.42c0-2.49,2.01-4.5,4.5-4.5s4.5,2.01,4.5,4.5c0,10.71-8.71,19.42-19.42,19.42Z"/><path d="M141.53,99.53h0c-1.36,0-2.65-.62-3.5-1.67-3.37-4.17-8.36-6.56-13.71-6.56s-10.34,2.39-13.71,6.56c-.85,1.06-2.14,1.67-3.5,1.67s-2.65-.62-3.5-1.67c-3.37-4.17-8.36-6.56-13.71-6.56s-10.34,2.39-13.71,6.56c-.85,1.06-2.14,1.67-3.5,1.67s-2.65-.62-3.5-1.67c-3.37-4.17-8.36-6.56-13.71-6.56s-10.34,2.39-13.71,6.56c-.85,1.06-2.14,1.67-3.5,1.67s-2.65-.62-3.5-1.67c-3.37-4.17-8.36-6.56-13.71-6.56-5.04,0-9.86,2.18-13.21,5.98-1.3,1.48-3.42,1.93-5.21,1.13-1.8-.81-2.86-2.69-2.63-4.64C5.49,48.37,44.13,14.14,89.91,14.14s84.42,34.23,89.88,79.62c.24,1.96-.83,3.84-2.63,4.64-1.8.8-3.91.35-5.21-1.13-3.35-3.8-8.16-5.98-13.21-5.98-5.34,0-10.34,2.39-13.71,6.56-.85,1.06-2.14,1.67-3.5,1.67ZM21.08,82.3c6.38,0,12.44,2.26,17.21,6.32,4.77-4.06,10.82-6.32,17.21-6.32s12.44,2.26,17.21,6.32c4.77-4.06,10.82-6.32,17.21-6.32s12.44,2.26,17.21,6.32c4.77-4.06,10.82-6.32,17.21-6.32s12.44,2.26,17.21,6.32c4.77-4.06,10.82-6.32,17.21-6.32,3.52,0,6.96.7,10.14,2.02-9.11-35.53-41.36-61.17-78.97-61.17S20.04,48.79,10.94,84.31c3.18-1.32,6.63-2.02,10.14-2.02Z"/><path d="M346.67,162.87h-104.61c-22.63,0-41.03-18.41-41.03-41.04,0-18.41,12.47-34.5,29.77-39.46-1.16-3.92-1.75-7.99-1.75-12.14,0-23.63,19.22-42.85,42.85-42.85,14.94,0,28.76,7.86,36.49,20.4,5.16-2.85,10.92-4.34,16.93-4.34,19.37,0,35.12,15.75,35.12,35.12,0,1.51-.1,3.01-.29,4.5,16.42,5.66,27.55,21.04,27.55,38.76,0,22.63-18.41,41.04-41.04,41.04ZM271.9,36.39c-18.67,0-33.85,15.18-33.85,33.85,0,4.73.96,9.31,2.87,13.63.57,1.29.5,2.77-.18,4s-1.9,2.07-3.29,2.27c-15.63,2.25-27.42,15.88-27.42,31.7,0,17.66,14.37,32.04,32.03,32.04h104.61c17.66,0,32.04-14.37,32.04-32.04,0-14.98-10.18-27.8-24.75-31.19-1.18-.27-2.2-1.01-2.83-2.05-.63-1.04-.81-2.28-.51-3.46.55-2.13.83-4.34.83-6.56,0-14.4-11.72-26.12-26.12-26.12-5.78,0-11.26,1.85-15.84,5.36-1.09.83-2.49,1.12-3.82.79-1.33-.33-2.43-1.24-3-2.49-5.51-11.98-17.59-19.72-30.76-19.72Z"/><path d="M270.34,223.2h-98.76c-30.08,0-39.57-19.31-40.38-29.52-.13-1.67.67-3.28,2.09-4.17s3.22-.92,4.66-.08c.11.06,11.9,6.75,28.97,6.75h44.94v-14.76c0-1.67.93-3.21,2.41-3.98,1.48-.78,3.27-.67,4.65.28l53.98,37.27c1.62,1.12,2.33,3.16,1.74,5.04-.59,1.88-2.33,3.16-4.3,3.16ZM143.23,201.4c3.62,5.93,11.46,12.81,28.35,12.81h84.32l-35.04-24.2v10.69c0,2.49-2.01,4.5-4.5,4.5h-49.44c-9.69,0-17.85-1.87-23.69-3.8Z"/><path d="M270.34,223.2h-98.76c-30.08,0-39.57-19.31-40.38-29.52-.13-1.67.67-3.28,2.09-4.17s3.22-.92,4.66-.08c.11.06,11.9,6.75,28.97,6.75h44.94v-14.76c0-1.67.93-3.21,2.41-3.98,1.48-.78,3.27-.67,4.65.28l53.98,37.27c1.62,1.12,2.33,3.16,1.74,5.04-.59,1.88-2.33,3.16-4.3,3.16ZM143.23,201.4c3.62,5.93,11.46,12.81,28.35,12.81h84.32l-35.04-24.2v10.69c0,2.49-2.01,4.5-4.5,4.5h-49.44c-9.69,0-17.85-1.87-23.69-3.8Z"/></g></svg>