<?xml version="1.0" encoding="UTF-8"?><svg id="_レイヤー_2" xmlns="http://www.w3.org/2000/svg" viewBox="0 0 253.03 250.79"><g id="line"><path d="M126.52,29.2c-2.49,0-4.5-2.01-4.5-4.5V4.5c0-2.49,2.01-4.5,4.5-4.5s4.5,2.01,4.5,4.5v20.2c0,2.49-2.01,4.5-4.5,4.5Z"/><path d="M147.83,250.79c-14.23,0-25.81-11.58-25.81-25.81v-102.91c0-2.49,2.01-4.5,4.5-4.5s4.5,2.01,4.5,4.5v102.91c0,9.27,7.54,16.81,16.81,16.81s16.81-7.54,16.81-16.81c0-2.49,2.01-4.5,4.5-4.5s4.5,2.01,4.5,4.5c0,14.23-11.58,25.81-25.81,25.81Z"/><path d="M200.26,138.33c-1.36,0-2.65-.62-3.5-1.67-5.18-6.42-12.86-10.1-21.08-10.1s-15.9,3.68-21.08,10.1c-.85,1.06-2.14,1.67-3.5,1.67s-2.65-.62-3.5-1.67c-5.18-6.42-12.86-10.1-21.08-10.1s-15.9,3.68-21.08,10.1c-.85,1.06-2.14,1.67-3.5,1.67h0c-1.36,0-2.65-.62-3.5-1.67-5.18-6.42-12.86-10.1-21.08-10.1s-15.9,3.68-21.08,10.1c-.85,1.06-2.14,1.67-3.5,1.67s-2.65-.62-3.5-1.67c-5.18-6.42-12.86-10.1-21.08-10.1-7.76,0-15.16,3.35-20.31,9.2-1.3,1.48-3.42,1.94-5.22,1.13-1.8-.81-2.86-2.69-2.63-4.64C7.71,68.37,62.09,20.2,126.52,20.2s118.81,48.17,126.48,112.05c.24,1.96-.83,3.84-2.63,4.64-1.8.81-3.91.35-5.21-1.13-5.15-5.85-12.56-9.2-20.31-9.2-8.22,0-15.9,3.68-21.08,10.1-.85,1.06-2.14,1.67-3.5,1.67ZM28.19,117.56c9.22,0,17.94,3.48,24.58,9.68,6.64-6.2,15.36-9.68,24.58-9.68s17.94,3.48,24.58,9.68c6.64-6.2,15.36-9.68,24.58-9.68s17.94,3.48,24.58,9.68c6.64-6.2,15.36-9.68,24.58-9.68s17.94,3.48,24.58,9.68c6.64-6.2,15.36-9.68,24.58-9.68,6.11,0,12.05,1.56,17.3,4.44-11.79-53.64-59.62-92.8-115.63-92.8S22.68,68.36,10.89,122c5.25-2.88,11.2-4.44,17.3-4.44Z"/></g></svg>