<?xml version="1.0" encoding="UTF-8"?><svg id="_レイヤー_2" xmlns="http://www.w3.org/2000/svg" viewBox="0 0 312.14 343.93"><g id="line"><path d="M199.73,286c-30.04,0-54.48-24.44-54.48-54.48s24.44-54.48,54.48-54.48,54.48,24.44,54.48,54.48-24.44,54.48-54.48,54.48ZM199.73,186.03c-25.08,0-45.48,20.4-45.48,45.48s20.4,45.48,45.48,45.48,45.48-20.4,45.48-45.48-20.4-45.48-45.48-45.48Z"/><path d="M199.73,162.22c-2.49,0-4.5-2.01-4.5-4.5v-34.12c0-2.49,2.01-4.5,4.5-4.5s4.5,2.01,4.5,4.5v34.12c0,2.49-2.01,4.5-4.5,4.5Z"/><path d="M199.73,343.93c-2.49,0-4.5-2.01-4.5-4.5v-34.12c0-2.49,2.01-4.5,4.5-4.5s4.5,2.01,4.5,4.5v34.12c0,2.49-2.01,4.5-4.5,4.5Z"/><path d="M162.83,172.11c-1.56,0-3.07-.81-3.9-2.25l-17.06-29.55c-1.24-2.15-.51-4.9,1.65-6.15,2.15-1.24,4.9-.5,6.15,1.65l17.06,29.55c1.24,2.15.51,4.9-1.65,6.15-.71.41-1.48.6-2.25.6Z"/><path d="M253.69,329.47c-1.56,0-3.07-.81-3.9-2.25l-17.06-29.55c-1.24-2.15-.51-4.9,1.65-6.15,2.15-1.24,4.9-.5,6.15,1.65l17.06,29.55c1.24,2.15.51,4.9-1.65,6.15-.71.41-1.48.6-2.25.6Z"/><path d="M293.18,289.97c-.76,0-1.54-.19-2.25-.6l-29.55-17.06c-2.15-1.24-2.89-4-1.65-6.15,1.24-2.15,3.99-2.89,6.15-1.65l29.55,17.06c2.15,1.24,2.89,4,1.65,6.15-.83,1.44-2.35,2.25-3.9,2.25Z"/><path d="M125.93,236.02h-34.12c-2.49,0-4.5-2.01-4.5-4.5s2.01-4.5,4.5-4.5h34.12c2.49,0,4.5,2.01,4.5,4.5s-2.01,4.5-4.5,4.5Z"/><path d="M307.64,236.02h-34.12c-2.49,0-4.5-2.01-4.5-4.5s2.01-4.5,4.5-4.5h34.12c2.49,0,4.5,2.01,4.5,4.5s-2.01,4.5-4.5,4.5Z"/><path d="M106.28,289.97c-1.56,0-3.07-.81-3.9-2.25-1.24-2.15-.51-4.9,1.65-6.15l29.55-17.06c2.15-1.24,4.9-.5,6.15,1.65,1.24,2.15.51,4.9-1.65,6.15l-29.55,17.06c-.71.41-1.48.6-2.25.6Z"/><path d="M263.64,199.12c-1.56,0-3.07-.81-3.9-2.25-1.24-2.15-.51-4.9,1.65-6.15l29.55-17.06c2.15-1.24,4.9-.5,6.15,1.65,1.24,2.15.51,4.9-1.65,6.15l-29.55,17.06c-.71.41-1.48.6-2.25.6Z"/><path d="M145.77,329.47c-.76,0-1.54-.19-2.25-.6-2.15-1.24-2.89-4-1.65-6.15l17.06-29.55c1.24-2.15,3.99-2.89,6.15-1.65,2.15,1.24,2.89,4,1.65,6.15l-17.06,29.55c-.83,1.44-2.35,2.25-3.9,2.25Z"/><path d="M236.62,172.11c-.76,0-1.54-.19-2.25-.6-2.15-1.24-2.89-4-1.65-6.15l17.06-29.55c1.24-2.15,3.99-2.89,6.15-1.65,2.15,1.24,2.89,4,1.65,6.15l-17.06,29.55c-.83,1.44-2.35,2.25-3.9,2.25Z"/><path d="M102.11,25.16c-2.49,0-4.5-2.01-4.5-4.5V4.5c0-2.49,2.01-4.5,4.5-4.5s4.5,2.01,4.5,4.5v16.16c0,2.49-2.01,4.5-4.5,4.5Z"/><path d="M119.16,202.43c-11.88,0-21.55-9.67-21.55-21.55v-82.33c0-2.49,2.01-4.5,4.5-4.5s4.5,2.01,4.5,4.5v82.33c0,6.92,5.63,12.55,12.55,12.55s12.55-5.63,12.55-12.55c0-2.49,2.01-4.5,4.5-4.5s4.5,2.01,4.5,4.5c0,11.88-9.67,21.55-21.55,21.55Z"/><path d="M161.11,112.47c-1.36,0-2.65-.62-3.5-1.67-3.97-4.92-9.87-7.74-16.17-7.74s-12.19,2.82-16.16,7.74c-.85,1.06-2.14,1.67-3.5,1.67s-2.65-.62-3.5-1.67c-3.97-4.92-9.87-7.74-16.17-7.74s-12.19,2.82-16.17,7.74c-.85,1.06-2.14,1.67-3.5,1.67h0c-1.36,0-2.65-.62-3.5-1.67-3.97-4.92-9.86-7.74-16.16-7.74s-12.19,2.82-16.17,7.74c-.85,1.06-2.14,1.67-3.5,1.67s-2.65-.62-3.5-1.67c-3.97-4.92-9.86-7.74-16.16-7.74-5.95,0-11.62,2.57-15.58,7.05-1.3,1.48-3.42,1.93-5.22,1.13-1.8-.81-2.86-2.69-2.63-4.64C6.23,55.04,50.12,16.16,102.11,16.16s95.88,38.88,102.08,90.43c.24,1.96-.83,3.84-2.63,4.64-1.8.81-3.91.35-5.22-1.13-3.95-4.48-9.63-7.05-15.58-7.05-6.3,0-12.19,2.82-16.16,7.74-.85,1.06-2.14,1.67-3.5,1.67ZM23.45,94.05c7.33,0,14.27,2.66,19.67,7.43,5.4-4.77,12.34-7.43,19.67-7.43s14.27,2.66,19.67,7.43c5.4-4.77,12.34-7.43,19.67-7.43s14.27,2.66,19.67,7.43c5.4-4.77,12.34-7.43,19.67-7.43s14.27,2.66,19.67,7.43c5.4-4.77,12.34-7.43,19.67-7.43,4.37,0,8.65.97,12.53,2.78-10.03-41.54-47.47-71.67-91.19-71.67S20.94,55.29,10.92,96.83c3.89-1.81,8.16-2.78,12.53-2.78Z"/><path d="M199.73,286c-30.04,0-54.48-24.44-54.48-54.48s24.44-54.48,54.48-54.48,54.48,24.44,54.48,54.48-24.44,54.48-54.48,54.48ZM199.73,186.03c-25.08,0-45.48,20.4-45.48,45.48s20.4,45.48,45.48,45.48,45.48-20.4,45.48-45.48-20.4-45.48-45.48-45.48Z"/></g></svg>