<?xml version="1.0" encoding="UTF-8"?><svg id="_レイヤー_2" xmlns="http://www.w3.org/2000/svg" viewBox="0 0 191.62 273.94"><g id="line"><circle cx="63.08" cy="65.72" r="10.11" transform="translate(-13.41 16.25) rotate(-13.28)"/><circle cx="128.54" cy="65.72" r="10.11" transform="translate(-11.66 31.29) rotate(-13.28)"/><path d="M113.11,100.03h-34.59c-2.49,0-4.5-2.01-4.5-4.5s2.01-4.5,4.5-4.5h34.59c2.49,0,4.5,2.01,4.5,4.5s-2.01,4.5-4.5,4.5Z"/><path d="M95.81,273.94C42.98,273.94,0,233.73,0,184.3c0-27,13.17-52.68,35.48-69.64-10.2-12.42-15.76-27.65-15.76-43.41C19.72,31.96,53.85,0,95.81,0s76.09,31.96,76.09,71.25c0,15.76-5.56,30.99-15.76,43.41,22.31,16.96,35.48,42.63,35.48,69.64,0,49.43-42.98,89.64-95.81,89.64ZM95.81,9c-36.99,0-67.09,27.93-67.09,62.25,0,15.12,5.93,29.7,16.69,41.07.91.96,1.35,2.27,1.21,3.58-.14,1.31-.85,2.5-1.95,3.24-22.34,15.16-35.67,39.52-35.67,65.16,0,44.47,38.94,80.64,86.81,80.64s86.81-36.18,86.81-80.64c0-25.65-13.33-50.01-35.67-65.16-1.09-.74-1.8-1.92-1.95-3.24-.14-1.31.3-2.62,1.21-3.58,10.76-11.37,16.69-25.95,16.69-41.07,0-34.33-30.1-62.25-67.09-62.25Z"/></g></svg>