<?xml version="1.0" encoding="UTF-8"?><svg id="_レイヤー_2" xmlns="http://www.w3.org/2000/svg" viewBox="0 0 362.78 225.31"><g id="line"><path d="M272.87,25.24c-2.49,0-4.5-2.01-4.5-4.5V6.6c0-2.49,2.01-4.5,4.5-4.5s4.5,2.01,4.5,4.5v14.14c0,2.49-2.01,4.5-4.5,4.5Z"/><path d="M287.79,180.36c-10.71,0-19.42-8.71-19.42-19.42v-72.04c0-2.49,2.01-4.5,4.5-4.5s4.5,2.01,4.5,4.5v72.04c0,5.74,4.67,10.42,10.42,10.42s10.42-4.67,10.42-10.42c0-2.49,2.01-4.5,4.5-4.5s4.5,2.01,4.5,4.5c0,10.71-8.71,19.42-19.42,19.42Z"/><path d="M324.49,101.64c-1.36,0-2.65-.62-3.5-1.67-3.37-4.17-8.37-6.57-13.71-6.57s-10.34,2.39-13.71,6.57c-.85,1.06-2.14,1.67-3.5,1.67h0c-1.36,0-2.65-.62-3.5-1.67-3.37-4.17-8.36-6.56-13.71-6.56s-10.34,2.39-13.71,6.57c-.85,1.06-2.14,1.67-3.5,1.67h0c-1.36,0-2.65-.62-3.5-1.67-3.37-4.17-8.36-6.56-13.71-6.56s-10.34,2.39-13.71,6.56c-.85,1.06-2.14,1.67-3.5,1.67s-2.65-.62-3.5-1.67c-3.37-4.17-8.37-6.57-13.71-6.57-5.04,0-9.86,2.18-13.21,5.98-1.3,1.48-3.42,1.94-5.21,1.13-1.8-.81-2.86-2.69-2.63-4.64,5.46-45.39,44.1-79.62,89.88-79.62s84.42,34.23,89.88,79.62c.24,1.96-.83,3.84-2.63,4.64-1.8.8-3.91.35-5.21-1.13-3.35-3.8-8.17-5.98-13.21-5.98-5.34,0-10.34,2.39-13.71,6.57-.85,1.06-2.14,1.67-3.5,1.67ZM307.29,84.4c6.38,0,12.44,2.26,17.21,6.32,4.77-4.06,10.82-6.32,17.21-6.32,3.52,0,6.96.7,10.14,2.02-9.11-35.53-41.36-61.17-78.97-61.17s-69.87,25.64-78.97,61.17c3.19-1.32,6.63-2.02,10.14-2.02,6.38,0,12.44,2.26,17.21,6.32,4.77-4.06,10.82-6.32,17.21-6.32s12.44,2.26,17.21,6.32c4.77-4.06,10.82-6.32,17.21-6.32s12.44,2.26,17.21,6.32c4.77-4.06,10.82-6.32,17.21-6.32Z"/><path d="M270.34,225.31h-98.76c-30.08,0-39.57-19.31-40.38-29.51-.13-1.67.67-3.28,2.09-4.17,1.42-.89,3.21-.92,4.66-.08.11.06,11.9,6.75,28.97,6.75h44.94v-14.76c0-1.67.93-3.21,2.41-3.98,1.48-.78,3.27-.67,4.65.28l53.98,37.27c1.62,1.12,2.33,3.16,1.74,5.04-.59,1.88-2.33,3.16-4.3,3.16ZM143.23,203.5c3.62,5.93,11.46,12.8,28.35,12.8h84.32l-35.04-24.2v10.69c0,2.49-2.01,4.5-4.5,4.5h-49.44c-9.69,0-17.85-1.87-23.69-3.8Z"/><path d="M84.25,47.35c0-3.91,3.17-7.08,7.08-7.08s7.08,3.17,7.08,7.08-3.17,7.08-7.08,7.08-7.08-3.17-7.08-7.08Z"/><path d="M38.43,47.35c0-3.91,3.17-7.08,7.08-7.08s7.08,3.17,7.08,7.08-3.17,7.08-7.08,7.08-7.08-3.17-7.08-7.08Z"/><path d="M80.53,72.72h-24.22c-2.49,0-4.5-2.01-4.5-4.5s2.01-4.5,4.5-4.5h24.22c2.49,0,4.5,2.01,4.5,4.5s-2.01,4.5-4.5,4.5Z"/><path d="M68.42,194.46C30.69,194.46,0,165.71,0,130.36c0-18.88,8.99-36.85,24.28-48.97-6.79-8.73-10.47-19.27-10.47-30.16C13.8,22.98,38.3,0,68.42,0s54.61,22.98,54.61,51.23c0,10.89-3.69,21.43-10.47,30.16,15.29,12.12,24.28,30.09,24.28,48.97,0,35.34-30.69,64.1-68.42,64.1ZM68.42,9c-25.15,0-45.61,18.94-45.61,42.23,0,10.23,4.02,20.11,11.31,27.82.91.96,1.35,2.27,1.21,3.58s-.85,2.5-1.95,3.24c-15.26,10.36-24.38,26.99-24.38,44.5,0,30.38,26.65,55.1,59.42,55.1s59.42-24.72,59.42-55.1c0-17.5-9.11-34.14-24.38-44.5-1.09-.74-1.8-1.92-1.95-3.24-.14-1.31.3-2.62,1.21-3.58,7.3-7.7,11.32-17.58,11.32-27.82,0-23.29-20.46-42.23-45.61-42.23Z"/><path d="M270.34,225.31h-98.76c-30.08,0-39.57-19.31-40.38-29.51-.13-1.67.67-3.28,2.09-4.17,1.42-.89,3.21-.92,4.66-.08.11.06,11.9,6.75,28.97,6.75h44.94v-14.76c0-1.67.93-3.21,2.41-3.98,1.48-.78,3.27-.67,4.65.28l53.98,37.27c1.62,1.12,2.33,3.16,1.74,5.04-.59,1.88-2.33,3.16-4.3,3.16ZM143.23,203.5c3.62,5.93,11.46,12.8,28.35,12.8h84.32l-35.04-24.2v10.69c0,2.49-2.01,4.5-4.5,4.5h-49.44c-9.69,0-17.85-1.87-23.69-3.8Z"/></g></svg>