<?xml version="1.0" encoding="UTF-8"?><svg id="_レイヤー_2" xmlns="http://www.w3.org/2000/svg" viewBox="0 0 278.43 328.95"><g id="line"><circle cx="51.36" cy="53.48" r="8.09"/><circle cx="103.73" cy="53.48" r="8.09"/><path d="M91.39,81.82h-27.68c-2.49,0-4.5-2.01-4.5-4.5s2.01-4.5,4.5-4.5h27.68c2.49,0,4.5,2.01,4.5,4.5s-2.01,4.5-4.5,4.5Z"/><path d="M77.55,220.96C34.79,220.96,0,188.38,0,148.34c0-21.59,10.38-42.13,28.01-55.86-7.92-9.96-12.23-22.06-12.23-34.58C15.78,25.98,43.49,0,77.55,0s61.77,25.98,61.77,57.9c0,12.51-4.31,24.62-12.23,34.58,17.62,13.74,28.01,34.27,28.01,55.86,0,40.04-34.79,72.61-77.55,72.61ZM77.55,9c-29.1,0-52.77,21.94-52.77,48.9,0,11.86,4.65,23.31,13.11,32.23.91.96,1.35,2.27,1.21,3.58-.14,1.31-.85,2.5-1.95,3.24-17.62,11.96-28.14,31.17-28.14,51.38,0,35.08,30.75,63.61,68.55,63.61s68.55-28.54,68.55-63.61c0-20.22-10.52-39.43-28.14-51.38-1.09-.74-1.8-1.92-1.95-3.24-.14-1.31.3-2.62,1.21-3.58,8.45-8.92,13.11-20.37,13.11-32.23,0-26.97-23.67-48.9-52.77-48.9Z"/><path d="M232.18,328.95h-119.55c-25.5,0-46.25-20.75-46.25-46.25,0-20.98,14.36-39.29,34.2-44.65-.59-1.9-1.06-3.84-1.41-5.79-.44-2.45,1.19-4.78,3.64-5.22,2.45-.44,4.78,1.19,5.22,3.64.55,3.05,1.46,6.05,2.72,8.9.57,1.29.5,2.77-.18,4s-1.9,2.07-3.29,2.27c-18.18,2.62-31.88,18.47-31.88,36.86,0,20.54,16.71,37.25,37.25,37.25h119.55c20.54,0,37.25-16.71,37.25-37.25,0-17.42-11.84-32.33-28.79-36.27-1.18-.27-2.2-1.01-2.83-2.05s-.81-2.28-.51-3.46c.64-2.49.97-5.07.97-7.66,0-16.82-13.68-30.5-30.5-30.5-6.75,0-13.14,2.16-18.5,6.26-1.09.83-2.49,1.12-3.82.79-1.33-.33-2.43-1.24-3-2.49-4.1-8.92-11.33-15.94-20.35-19.79-2.29-.97-3.35-3.62-2.38-5.9.97-2.29,3.62-3.35,5.9-2.38,9.47,4.04,17.33,10.93,22.56,19.69,5.93-3.41,12.61-5.18,19.57-5.18,21.78,0,39.5,17.72,39.5,39.5,0,1.87-.13,3.74-.39,5.58,18.78,6.24,31.55,23.7,31.55,43.86,0,25.5-20.75,46.25-46.25,46.25Z"/></g></svg>