<?xml version="1.0" encoding="UTF-8"?><svg id="_レイヤー_2" xmlns="http://www.w3.org/2000/svg" viewBox="0 0 288.81 363.19"><g id="line"><path d="M176.4,305.26c-30.04,0-54.48-24.44-54.48-54.48s24.44-54.48,54.48-54.48,54.48,24.44,54.48,54.48-24.44,54.48-54.48,54.48ZM176.4,205.29c-25.08,0-45.48,20.4-45.48,45.48s20.4,45.48,45.48,45.48,45.48-20.4,45.48-45.48-20.4-45.48-45.48-45.48Z"/><path d="M176.4,181.49c-2.49,0-4.5-2.01-4.5-4.5v-34.12c0-2.49,2.01-4.5,4.5-4.5s4.5,2.01,4.5,4.5v34.12c0,2.49-2.01,4.5-4.5,4.5Z"/><path d="M176.4,363.19c-2.49,0-4.5-2.01-4.5-4.5v-34.12c0-2.49,2.01-4.5,4.5-4.5s4.5,2.01,4.5,4.5v34.12c0,2.49-2.01,4.5-4.5,4.5Z"/><path d="M230.36,348.74c-1.56,0-3.07-.81-3.9-2.25l-17.06-29.55c-1.24-2.15-.51-4.9,1.65-6.15,2.15-1.24,4.9-.5,6.15,1.65l17.06,29.55c1.24,2.15.51,4.9-1.65,6.15-.71.41-1.48.6-2.25.6Z"/><path d="M269.85,309.24c-.76,0-1.54-.19-2.25-.6l-29.55-17.06c-2.15-1.24-2.89-4-1.65-6.15,1.24-2.15,3.99-2.89,6.15-1.65l29.55,17.06c2.15,1.24,2.89,4,1.65,6.15-.83,1.44-2.35,2.25-3.9,2.25Z"/><path d="M102.61,255.28h-34.12c-2.49,0-4.5-2.01-4.5-4.5s2.01-4.5,4.5-4.5h34.12c2.49,0,4.5,2.01,4.5,4.5s-2.01,4.5-4.5,4.5Z"/><path d="M284.31,255.28h-34.12c-2.49,0-4.5-2.01-4.5-4.5s2.01-4.5,4.5-4.5h34.12c2.49,0,4.5,2.01,4.5,4.5s-2.01,4.5-4.5,4.5Z"/><path d="M82.95,309.24c-1.56,0-3.07-.81-3.9-2.25-1.24-2.15-.51-4.9,1.65-6.15l29.55-17.06c2.15-1.24,4.91-.5,6.15,1.65,1.24,2.15.51,4.9-1.65,6.15l-29.55,17.06c-.71.41-1.48.6-2.25.6Z"/><path d="M240.31,218.38c-1.56,0-3.07-.81-3.9-2.25-1.24-2.15-.51-4.9,1.65-6.15l29.55-17.06c2.15-1.24,4.9-.5,6.15,1.65,1.24,2.15.51,4.9-1.65,6.15l-29.55,17.06c-.71.41-1.48.6-2.25.6Z"/><path d="M122.44,348.74c-.76,0-1.54-.19-2.25-.6-2.15-1.24-2.89-4-1.65-6.15l17.06-29.55c1.24-2.15,3.99-2.89,6.15-1.65,2.15,1.24,2.89,4,1.65,6.15l-17.06,29.55c-.83,1.44-2.35,2.25-3.9,2.25Z"/><path d="M213.29,191.37c-.76,0-1.54-.19-2.25-.6-2.15-1.24-2.89-4-1.65-6.15l17.06-29.55c1.24-2.15,3.99-2.89,6.15-1.65,2.15,1.24,2.89,4,1.65,6.15l-17.06,29.55c-.83,1.44-2.35,2.25-3.9,2.25Z"/><circle cx="51.36" cy="53.48" r="8.09"/><circle cx="103.73" cy="53.48" r="8.09"/><path d="M91.39,81.82h-27.68c-2.49,0-4.5-2.01-4.5-4.5s2.01-4.5,4.5-4.5h27.68c2.49,0,4.5,2.01,4.5,4.5s-2.01,4.5-4.5,4.5Z"/><path d="M77.55,220.96C34.79,220.96,0,188.38,0,148.34c0-21.59,10.38-42.12,28.01-55.86-7.92-9.96-12.23-22.06-12.23-34.58C15.77,25.98,43.49,0,77.55,0s61.77,25.98,61.77,57.9c0,12.51-4.31,24.62-12.23,34.58,17.62,13.74,28.01,34.27,28.01,55.86,0,40.04-34.79,72.61-77.55,72.61ZM77.55,9c-29.1,0-52.77,21.94-52.77,48.9,0,11.86,4.65,23.31,13.11,32.23.91.96,1.35,2.27,1.21,3.58-.14,1.31-.85,2.5-1.95,3.24-17.62,11.96-28.14,31.17-28.14,51.38,0,35.08,30.75,63.61,68.55,63.61s68.55-28.54,68.55-63.61c0-20.22-10.52-39.43-28.14-51.38-1.09-.74-1.8-1.92-1.95-3.24-.14-1.31.3-2.62,1.21-3.58,8.45-8.92,13.11-20.37,13.11-32.23,0-26.97-23.67-48.9-52.77-48.9Z"/><path d="M176.4,305.26c-30.04,0-54.48-24.44-54.48-54.48s24.44-54.48,54.48-54.48,54.48,24.44,54.48,54.48-24.44,54.48-54.48,54.48ZM176.4,205.29c-25.08,0-45.48,20.4-45.48,45.48s20.4,45.48,45.48,45.48,45.48-20.4,45.48-45.48-20.4-45.48-45.48-45.48Z"/></g></svg>