<?xml version="1.0" encoding="UTF-8"?><svg id="_レイヤー_2" xmlns="http://www.w3.org/2000/svg" viewBox="0 0 366.21 225.31"><g id="line"><path d="M325.18,158.97h-104.61c-22.63,0-41.03-18.41-41.03-41.04,0-18.41,12.47-34.5,29.77-39.46-1.16-3.92-1.75-7.99-1.75-12.14,0-23.63,19.22-42.85,42.85-42.85,14.94,0,28.76,7.86,36.49,20.4,5.16-2.85,10.92-4.34,16.93-4.34,19.37,0,35.12,15.75,35.12,35.12,0,1.51-.1,3.01-.29,4.5,16.42,5.66,27.55,21.04,27.55,38.76,0,22.63-18.41,41.04-41.03,41.04ZM250.41,32.49c-18.66,0-33.85,15.18-33.85,33.85,0,4.73.96,9.31,2.86,13.63.57,1.29.5,2.77-.18,4-.68,1.23-1.9,2.07-3.29,2.27-15.63,2.25-27.42,15.88-27.42,31.7,0,17.66,14.37,32.04,32.03,32.04h104.61c17.66,0,32.03-14.37,32.03-32.04,0-14.98-10.18-27.8-24.75-31.19-1.18-.27-2.2-1.01-2.83-2.05-.63-1.04-.81-2.28-.51-3.46.55-2.13.83-4.34.83-6.56,0-14.4-11.72-26.12-26.12-26.12-5.78,0-11.26,1.85-15.84,5.36-1.09.83-2.49,1.12-3.82.79-1.33-.33-2.43-1.24-3-2.49-5.51-11.98-17.59-19.72-30.76-19.72Z"/><path d="M273.76,225.31h-98.76c-30.08,0-39.57-19.31-40.38-29.52-.13-1.67.67-3.28,2.09-4.17,1.42-.89,3.21-.92,4.66-.08.11.06,11.9,6.75,28.97,6.75h44.94v-14.76c0-1.67.93-3.21,2.41-3.98s3.27-.67,4.65.28l53.98,37.27c1.62,1.12,2.33,3.16,1.74,5.04-.59,1.88-2.33,3.16-4.3,3.16ZM146.66,203.5c3.62,5.93,11.46,12.81,28.35,12.81h84.32l-35.04-24.2v10.69c0,2.49-2.01,4.5-4.5,4.5h-49.44c-9.69,0-17.85-1.87-23.69-3.8Z"/><path d="M273.76,225.31h-98.76c-30.08,0-39.57-19.31-40.38-29.52-.13-1.67.67-3.28,2.09-4.17,1.42-.89,3.21-.92,4.66-.08.11.06,11.9,6.75,28.97,6.75h44.94v-14.76c0-1.67.93-3.21,2.41-3.98s3.27-.67,4.65.28l53.98,37.27c1.62,1.12,2.33,3.16,1.74,5.04-.59,1.88-2.33,3.16-4.3,3.16ZM146.66,203.5c3.62,5.93,11.46,12.81,28.35,12.81h84.32l-35.04-24.2v10.69c0,2.49-2.01,4.5-4.5,4.5h-49.44c-9.69,0-17.85-1.87-23.69-3.8Z"/><path d="M84.25,47.35c0-3.91,3.17-7.08,7.08-7.08s7.08,3.17,7.08,7.08-3.17,7.08-7.08,7.08-7.08-3.17-7.08-7.08Z"/><path d="M38.43,47.35c0-3.91,3.17-7.08,7.08-7.08s7.08,3.17,7.08,7.08-3.17,7.08-7.08,7.08-7.08-3.17-7.08-7.08Z"/><path d="M80.52,72.72h-24.22c-2.49,0-4.5-2.01-4.5-4.5s2.01-4.5,4.5-4.5h24.22c2.49,0,4.5,2.01,4.5,4.5s-2.01,4.5-4.5,4.5Z"/><path d="M68.42,194.46C30.69,194.46,0,165.71,0,130.36c0-18.88,8.99-36.85,24.28-48.97-6.79-8.73-10.47-19.27-10.47-30.16C13.8,22.98,38.3,0,68.42,0s54.61,22.98,54.61,51.23c0,10.89-3.69,21.43-10.47,30.16,15.29,12.12,24.28,30.09,24.28,48.97,0,35.34-30.69,64.1-68.42,64.1ZM68.42,9c-25.15,0-45.61,18.94-45.61,42.23,0,10.23,4.02,20.11,11.31,27.82.91.96,1.35,2.27,1.21,3.58s-.85,2.5-1.95,3.24c-15.26,10.36-24.38,26.99-24.38,44.5,0,30.38,26.65,55.1,59.42,55.1s59.42-24.72,59.42-55.1c0-17.5-9.11-34.14-24.38-44.5-1.09-.74-1.8-1.92-1.95-3.24s.3-2.62,1.21-3.58c7.3-7.71,11.31-17.58,11.31-27.82,0-23.29-20.46-42.23-45.61-42.23Z"/></g></svg>