<?xml version="1.0" encoding="UTF-8"?><svg id="_レイヤー_2" xmlns="http://www.w3.org/2000/svg" viewBox="0 0 278.52 355.13"><g id="line"><path d="M176.4,177.86c-2.49,0-4.5-2.01-4.5-4.5v-16.16c0-2.49,2.01-4.5,4.5-4.5s4.5,2.01,4.5,4.5v16.16c0,2.49-2.01,4.5-4.5,4.5Z"/><path d="M193.45,355.13c-11.88,0-21.55-9.67-21.55-21.55v-82.33c0-2.49,2.01-4.5,4.5-4.5s4.5,2.01,4.5,4.5v82.33c0,6.92,5.63,12.55,12.55,12.55s12.55-5.63,12.55-12.55c0-2.49,2.01-4.5,4.5-4.5s4.5,2.01,4.5,4.5c0,11.88-9.67,21.55-21.55,21.55Z"/><path d="M235.4,265.17c-1.36,0-2.65-.62-3.5-1.67-3.97-4.92-9.87-7.74-16.17-7.74s-12.19,2.82-16.16,7.74c-.85,1.06-2.14,1.67-3.5,1.67h0c-1.36,0-2.65-.62-3.5-1.67-3.97-4.92-9.86-7.74-16.16-7.74s-12.19,2.82-16.17,7.74c-.85,1.06-2.14,1.67-3.5,1.67h0c-1.36,0-2.65-.62-3.5-1.67-3.97-4.92-9.86-7.74-16.16-7.74s-12.19,2.82-16.16,7.74c-.85,1.06-2.14,1.67-3.5,1.67s-2.65-.62-3.5-1.67c-3.97-4.92-9.87-7.74-16.16-7.74-5.95,0-11.62,2.57-15.58,7.05-1.3,1.48-3.42,1.93-5.21,1.13-1.8-.81-2.86-2.69-2.63-4.64,1.21-10.08,3.9-19.88,7.99-29.14,1-2.27,3.66-3.3,5.94-2.3,2.27,1,3.3,3.66,2.3,5.94-2.25,5.08-4.03,10.35-5.33,15.74,3.89-1.81,8.16-2.78,12.53-2.78,7.33,0,14.27,2.66,19.67,7.43,5.4-4.77,12.34-7.43,19.67-7.43s14.27,2.66,19.67,7.43c5.4-4.77,12.34-7.43,19.67-7.43s14.27,2.66,19.67,7.43c5.4-4.77,12.34-7.43,19.67-7.43s14.27,2.66,19.67,7.43c5.4-4.77,12.34-7.43,19.67-7.43,4.37,0,8.65.97,12.53,2.78-10.03-41.54-47.47-71.67-91.2-71.67-3.59,0-7.2.21-10.75.61-2.47.29-4.7-1.49-4.98-3.96-.28-2.47,1.49-4.7,3.96-4.98,3.88-.44,7.84-.67,11.77-.67,52,0,95.88,38.88,102.08,90.43.24,1.96-.83,3.84-2.63,4.64-1.8.8-3.91.35-5.22-1.13-3.95-4.48-9.63-7.05-15.58-7.05-6.3,0-12.19,2.82-16.16,7.74-.85,1.06-2.14,1.67-3.5,1.67Z"/><circle cx="51.36" cy="53.48" r="8.09"/><circle cx="103.73" cy="53.48" r="8.09"/><path d="M91.39,81.82h-27.68c-2.49,0-4.5-2.01-4.5-4.5s2.01-4.5,4.5-4.5h27.68c2.49,0,4.5,2.01,4.5,4.5s-2.01,4.5-4.5,4.5Z"/><path d="M77.55,220.96C34.79,220.96,0,188.38,0,148.34c0-21.59,10.38-42.13,28.01-55.86-7.92-9.96-12.23-22.06-12.23-34.58C15.78,25.98,43.49,0,77.55,0s61.77,25.98,61.77,57.91c0,12.51-4.31,24.62-12.23,34.58,17.62,13.73,28.01,34.27,28.01,55.86,0,40.04-34.79,72.61-77.55,72.61ZM77.55,9c-29.1,0-52.77,21.94-52.77,48.91,0,11.86,4.65,23.31,13.11,32.23.91.96,1.35,2.27,1.21,3.58-.14,1.31-.85,2.5-1.95,3.24-17.62,11.96-28.14,31.17-28.14,51.38,0,35.08,30.75,63.61,68.55,63.61s68.55-28.54,68.55-63.61c0-20.22-10.52-39.43-28.14-51.38-1.09-.74-1.8-1.92-1.95-3.24-.14-1.31.3-2.62,1.21-3.58,8.45-8.92,13.11-20.37,13.11-32.23,0-26.97-23.67-48.91-52.77-48.91Z"/></g></svg>