<?xml version="1.0" encoding="UTF-8"?><svg id="_レイヤー_2" xmlns="http://www.w3.org/2000/svg" viewBox="0 0 280 331.31"><g id="line"><path d="M202.29,198.36c-2.49,0-4.5-2.01-4.5-4.5v-12.12c0-2.49,2.01-4.5,4.5-4.5s4.5,2.01,4.5,4.5v12.12c0,2.49-2.01,4.5-4.5,4.5Z"/><path d="M215.07,331.31c-9.53,0-17.29-7.75-17.29-17.29v-61.75c0-2.49,2.01-4.5,4.5-4.5s4.5,2.01,4.5,4.5v61.75c0,4.57,3.72,8.29,8.29,8.29s8.29-3.72,8.29-8.29c0-2.49,2.01-4.5,4.5-4.5s4.5,2.01,4.5,4.5c0,9.53-7.75,17.29-17.29,17.29Z"/><path d="M246.54,263.84c-1.36,0-2.65-.62-3.5-1.67-2.77-3.42-6.87-5.39-11.25-5.39s-8.48,1.96-11.25,5.39c-.85,1.06-2.14,1.67-3.5,1.67s-2.65-.62-3.5-1.67c-2.77-3.42-6.87-5.39-11.25-5.39s-8.48,1.96-11.25,5.39c-.85,1.06-2.14,1.67-3.5,1.67h0c-1.36,0-2.65-.62-3.5-1.67-2.76-3.42-6.86-5.39-11.25-5.39s-8.48,1.96-11.25,5.39c-.85,1.06-2.14,1.67-3.5,1.67s-2.65-.62-3.5-1.67c-2.77-3.42-6.87-5.39-11.25-5.39-4.14,0-8.09,1.79-10.84,4.91-1.3,1.48-3.42,1.94-5.21,1.13-1.8-.8-2.86-2.69-2.63-4.64,4.72-39.23,38.11-68.82,77.68-68.82s72.96,29.58,77.68,68.82c.24,1.96-.83,3.84-2.63,4.64-1.8.81-3.91.35-5.22-1.13-2.75-3.12-6.7-4.91-10.84-4.91-4.38,0-8.48,1.96-11.25,5.39-.85,1.06-2.14,1.67-3.5,1.67ZM231.79,247.78c5.44,0,10.61,1.86,14.75,5.22,4.14-3.36,9.31-5.22,14.75-5.22,2.67,0,5.28.46,7.75,1.32-8.15-29.54-35.24-50.74-66.75-50.74s-58.6,21.2-66.75,50.74c2.47-.87,5.08-1.32,7.75-1.32,5.44,0,10.61,1.86,14.75,5.22,4.14-3.36,9.31-5.22,14.75-5.22s10.61,1.86,14.75,5.22c4.14-3.36,9.31-5.22,14.75-5.22s10.61,1.86,14.75,5.22c4.14-3.36,9.31-5.22,14.75-5.22Z"/><circle cx="57.22" cy="59.6" r="9.1"/><circle cx="116.14" cy="59.6" r="9.1"/><path d="M102.25,90.92h-31.14c-2.49,0-4.5-2.01-4.5-4.5s2.01-4.5,4.5-4.5h31.14c2.49,0,4.5,2.01,4.5,4.5s-2.01,4.5-4.5,4.5Z"/><path d="M86.68,247.45C38.88,247.45,0,211.05,0,166.32c0-24.29,11.78-47.4,31.74-62.75-9.06-11.19-13.99-24.85-13.99-38.99C17.75,28.97,48.67,0,86.68,0s68.93,28.97,68.93,64.58c0,14.14-4.94,27.8-13.99,38.99,19.97,15.35,31.74,38.45,31.74,62.75,0,6.54-.84,13.06-2.48,19.36-.63,2.4-3.09,3.84-5.49,3.21-2.4-.63-3.84-3.09-3.21-5.49,1.45-5.56,2.19-11.3,2.19-17.08,0-22.93-11.93-44.72-31.91-58.27-1.09-.74-1.8-1.92-1.95-3.24-.14-1.31.3-2.62,1.21-3.58,9.61-10.14,14.9-23.16,14.9-36.65,0-30.65-26.88-55.58-59.93-55.58s-59.93,24.93-59.93,55.58c0,13.49,5.29,26.5,14.9,36.65.91.96,1.35,2.27,1.21,3.58-.14,1.31-.85,2.5-1.95,3.24-19.98,13.56-31.91,35.34-31.91,58.27,0,39.77,34.85,72.13,77.68,72.13,9.63,0,19.04-1.62,27.94-4.81,2.34-.84,4.92.38,5.75,2.72.84,2.34-.38,4.92-2.72,5.75-9.88,3.54-20.3,5.33-30.98,5.33Z"/></g></svg>