<?xml version="1.0" encoding="UTF-8"?><svg id="_レイヤー_2" xmlns="http://www.w3.org/2000/svg" viewBox="0 0 233.58 306.49"><g id="line"><path d="M92.17,15.61c-1.84,0-3.64-.75-4.95-2.06-.32-.32-.61-.68-.87-1.06-.25-.38-.47-.79-.64-1.21-.17-.42-.31-.86-.4-1.31-.09-.45-.14-.91-.14-1.36s.05-.92.14-1.37c.09-.45.23-.89.4-1.31.17-.42.39-.83.64-1.21.26-.38.55-.74.87-1.06,1.31-1.31,3.11-2.06,4.95-2.06s3.65.75,4.95,2.06c.33.32.62.68.87,1.06.26.38.47.79.65,1.21.17.42.31.86.4,1.31.09.45.13.91.13,1.37s-.04.91-.13,1.36c-.09.45-.23.89-.4,1.31-.18.42-.39.83-.65,1.21-.25.38-.54.74-.87,1.06-1.3,1.31-3.1,2.06-4.95,2.06Z"/><path d="M46.09,54.69c-2.74-2.73-2.74-7.17,0-9.9h0c2.73-2.74,7.17-2.74,9.9,0h0c2.73,2.73,2.73,7.17,0,9.9h0c-1.37,1.37-3.16,2.05-4.95,2.05h0c-1.79,0-3.58-.68-4.95-2.05ZM59.8,40.98c-2.73-2.74-2.73-7.17,0-9.9h0c2.73-2.74,7.17-2.74,9.9,0h0c2.73,2.73,2.73,7.16,0,9.9h0c-1.37,1.36-3.16,2.05-4.95,2.05h0c-1.79,0-3.58-.69-4.95-2.05ZM73.51,27.27c-2.73-2.74-2.73-7.17,0-9.9h0c2.74-2.74,7.17-2.74,9.9,0h0c2.73,2.73,2.73,7.16,0,9.9h0c-1.37,1.36-3.16,2.05-4.95,2.05h0c-1.79,0-3.58-.69-4.95-2.05Z"/><path d="M37.33,70.45c-.46,0-.92-.04-1.37-.14-.45-.09-.89-.22-1.31-.4-.42-.17-.83-.39-1.21-.64s-.74-.55-1.06-.87c-1.3-1.3-2.05-3.11-2.05-4.95,0-.46.04-.92.14-1.37.09-.44.22-.88.39-1.31.18-.42.4-.83.65-1.2.25-.39.55-.75.87-1.07,1.62-1.62,4.04-2.37,6.32-1.91.44.09.88.22,1.3.4.43.17.83.39,1.21.64.39.26.74.55,1.07.87.32.32.61.68.87,1.07.25.37.47.78.64,1.2.18.43.31.87.4,1.31.09.45.14.91.14,1.37,0,1.85-.75,3.65-2.05,4.95-.33.32-.68.62-1.07.87-.38.25-.78.47-1.21.64-.42.18-.86.31-1.3.4-.46.1-.92.14-1.37.14Z"/><path d="M146.68,13.99c-.46,0-.92-.04-1.37-.13-.44-.09-.88-.23-1.31-.4-.42-.18-.83-.4-1.21-.65-.38-.25-.74-.55-1.06-.87-.32-.32-.61-.68-.87-1.06-.25-.38-.47-.79-.64-1.21-.18-.42-.31-.86-.4-1.31-.09-.45-.14-.91-.14-1.37s.05-.92.14-1.37c.09-.44.22-.88.4-1.31.17-.42.39-.82.64-1.2.26-.39.55-.75.87-1.07,1.63-1.62,4.04-2.37,6.32-1.91.45.09.89.22,1.31.4.42.17.83.39,1.21.64.38.26.74.55,1.06.87.32.32.62.68.87,1.07.25.38.47.78.64,1.2.18.43.31.87.4,1.31.09.45.14.92.14,1.37s-.05.92-.14,1.37c-.09.45-.22.89-.4,1.31-.17.42-.39.83-.64,1.21-.25.38-.55.74-.87,1.06-.32.32-.68.62-1.06.87s-.79.47-1.21.65c-.42.17-.86.31-1.31.4-.45.09-.91.13-1.37.13Z"/><path d="M96.61,57.06c-2.73-2.73-2.73-7.16,0-9.9h0c2.73-2.73,7.16-2.73,9.9,0h0c2.73,2.74,2.73,7.17,0,9.9h0c-1.37,1.37-3.16,2.05-4.95,2.05h0c-1.79,0-3.58-.68-4.95-2.05ZM111.65,42.02c-2.73-2.73-2.73-7.16,0-9.9h0c2.73-2.73,7.17-2.73,9.9,0h0c2.73,2.74,2.73,7.17,0,9.9h0c-1.37,1.37-3.16,2.05-4.95,2.05h0c-1.79,0-3.58-.68-4.95-2.05ZM126.69,26.98c-2.73-2.73-2.73-7.16,0-9.9h0c2.73-2.73,7.17-2.73,9.9,0h0c2.73,2.74,2.73,7.17,0,9.9h0c-1.37,1.37-3.16,2.05-4.95,2.05h0c-1.79,0-3.58-.68-4.95-2.05Z"/><path d="M86.52,74.15c-.46,0-.92-.04-1.37-.13-.44-.09-.88-.23-1.31-.4-.42-.18-.83-.4-1.21-.65-.38-.25-.74-.55-1.06-.87-.32-.32-.62-.68-.87-1.06-.25-.38-.47-.79-.64-1.21-.18-.42-.31-.86-.4-1.31-.09-.45-.14-.91-.14-1.37,0-1.84.75-3.65,2.05-4.95.32-.32.68-.61,1.06-.87.38-.25.79-.47,1.21-.64.43-.18.87-.31,1.31-.4.91-.18,1.83-.18,2.74,0,.44.09.88.22,1.31.4.42.17.83.39,1.21.64.38.26.74.55,1.06.87,1.3,1.31,2.05,3.11,2.05,4.95,0,.46-.05.92-.14,1.37-.09.45-.22.89-.4,1.31-.17.42-.39.83-.64,1.21-.25.38-.55.74-.87,1.06-.32.32-.68.62-1.06.87-.38.25-.79.47-1.21.65-.43.17-.87.31-1.31.4-.45.09-.91.13-1.37.13Z"/><path d="M183.35,30.22c-.46,0-.92-.05-1.37-.14-.45-.09-.89-.22-1.31-.4-.42-.17-.83-.39-1.21-.64-.38-.26-.74-.55-1.06-.87-.33-.32-.62-.68-.87-1.06-.26-.38-.47-.79-.65-1.21-.17-.43-.31-.87-.4-1.31-.09-.45-.13-.91-.13-1.37s.04-.92.13-1.37c.09-.44.23-.89.4-1.31.18-.42.39-.83.65-1.21.25-.38.54-.74.87-1.06.32-.32.68-.62,1.06-.87.38-.25.79-.47,1.21-.64.42-.18.86-.31,1.31-.4.9-.18,1.83-.18,2.73,0,.45.09.89.22,1.31.4.43.17.83.39,1.21.64.38.25.74.55,1.07.87.32.32.61.68.87,1.06.25.38.46.79.64,1.21.17.42.31.87.4,1.31.09.45.14.91.14,1.37s-.05.92-.14,1.37c-.09.44-.23.88-.4,1.31-.18.42-.39.83-.64,1.21-.26.38-.55.74-.87,1.06-1.31,1.3-3.11,2.05-4.95,2.05Z"/><path d="M135.24,71.33c-2.73-2.74-2.73-7.17,0-9.9h0c2.73-2.74,7.16-2.74,9.9,0h0c2.73,2.73,2.73,7.16,0,9.9h0c-1.37,1.36-3.16,2.05-4.95,2.05h0c-1.79,0-3.58-.69-4.95-2.05ZM149.62,56.94c-2.73-2.73-2.73-7.16,0-9.9h0c2.74-2.73,7.17-2.73,9.9,0h0c2.74,2.74,2.74,7.17,0,9.9h0c-1.36,1.37-3.15,2.05-4.95,2.05h0c-1.79,0-3.58-.68-4.95-2.05ZM164.01,42.55c-2.73-2.73-2.73-7.16,0-9.89h0c2.73-2.74,7.17-2.74,9.9,0h0c2.73,2.73,2.73,7.16,0,9.89h0c-1.37,1.37-3.16,2.06-4.95,2.06h0c-1.79,0-3.58-.69-4.95-2.06Z"/><path d="M125.8,87.76c-1.84,0-3.64-.74-4.95-2.05-1.3-1.3-2.05-3.11-2.05-4.95s.75-3.64,2.05-4.95c1.31-1.3,3.11-2.05,4.95-2.05s3.65.75,4.95,2.05c1.31,1.31,2.05,3.11,2.05,4.95s-.74,3.65-2.05,4.95c-1.3,1.31-3.1,2.05-4.95,2.05Z"/><path d="M226.58,92.77c-1.84,0-3.65-.75-4.95-2.05-1.3-1.3-2.05-3.11-2.05-4.95s.75-3.65,2.05-4.95c.32-.32.68-.61,1.07-.87.38-.25.78-.47,1.2-.64.43-.18.87-.31,1.31-.4.91-.18,1.84-.18,2.74,0,.45.09.89.22,1.31.4.42.17.83.39,1.21.64.38.26.74.55,1.06.87.32.32.62.68.87,1.07.25.37.47.78.64,1.2.18.43.31.87.4,1.31.1.45.14.91.14,1.37s-.04.92-.14,1.37c-.09.45-.22.89-.4,1.31-.17.42-.39.83-.64,1.21-.25.38-.55.74-.87,1.06-.32.32-.68.62-1.06.87-.38.25-.79.47-1.21.64-.42.18-.86.31-1.31.4-.45.09-.91.14-1.37.14Z"/><path d="M176.37,135.98c-2.73-2.74-2.73-7.17,0-9.9h0c2.74-2.74,7.17-2.74,9.9,0h0c2.74,2.73,2.74,7.16,0,9.9h0c-1.36,1.37-3.15,2.05-4.95,2.05h0c-1.79,0-3.58-.68-4.95-2.05ZM191.46,120.89c-2.73-2.73-2.73-7.16,0-9.9h0c2.73-2.73,7.17-2.73,9.9,0h0c2.73,2.74,2.73,7.17,0,9.9h0c-1.37,1.37-3.16,2.05-4.95,2.05h0c-1.79,0-3.58-.68-4.95-2.05ZM206.55,105.81c-2.74-2.74-2.74-7.17,0-9.9h0c2.73-2.74,7.16-2.74,9.9,0h0c2.73,2.73,2.73,7.16,0,9.9h0c-1.37,1.36-3.16,2.05-4.95,2.05h0c-1.8,0-3.59-.69-4.95-2.05Z"/><path d="M166.24,153.11c-.46,0-.92-.04-1.37-.13-.45-.09-.89-.23-1.31-.4-.42-.18-.83-.39-1.21-.65-.38-.25-.74-.54-1.06-.87-1.3-1.3-2.05-3.1-2.05-4.95,0-.45.05-.91.14-1.36.09-.45.22-.89.39-1.31.18-.43.4-.83.65-1.21.25-.38.55-.74.87-1.06.32-.33.68-.62,1.06-.88.38-.25.79-.46,1.21-.64.42-.17.86-.31,1.31-.4.9-.18,1.83-.18,2.74,0,.44.09.88.23,1.31.4.42.18.82.39,1.2.64.39.26.74.55,1.07.88,1.3,1.3,2.05,3.1,2.05,4.94s-.75,3.65-2.05,4.95c-.33.33-.68.62-1.07.87-.38.26-.78.47-1.2.65-.43.17-.87.31-1.31.4-.45.09-.91.13-1.37.13Z"/><path d="M225.82,146.43c-.45,0-.91-.05-1.37-.14-.44-.09-.88-.23-1.31-.4-.42-.18-.82-.39-1.2-.65-.39-.25-.75-.54-1.07-.87-.32-.32-.61-.68-.87-1.06-.25-.38-.47-.79-.64-1.21-.18-.42-.31-.86-.4-1.31-.09-.45-.14-.91-.14-1.37,0-1.84.75-3.64,2.05-4.94.32-.33.68-.62,1.07-.88.38-.25.78-.46,1.2-.64.43-.17.87-.31,1.31-.4.91-.18,1.84-.18,2.74,0,.45.09.89.23,1.31.4.42.18.83.39,1.21.64.38.26.74.55,1.06.88.32.32.62.68.87,1.06.25.38.47.78.65,1.21.17.42.31.86.4,1.31.09.45.13.91.13,1.36s-.04.92-.13,1.37c-.09.45-.23.89-.4,1.31-.18.42-.4.83-.65,1.21-.25.38-.55.74-.87,1.06-1.3,1.31-3.11,2.06-4.95,2.06Z"/><path d="M179.45,185.79c-2.73-2.73-2.73-7.16,0-9.9h0c2.74-2.73,7.17-2.73,9.9,0h0c2.74,2.74,2.74,7.17,0,9.9h0c-1.37,1.37-3.16,2.05-4.95,2.05h0c-1.79,0-3.58-.68-4.95-2.05ZM193.26,171.99c-2.73-2.74-2.73-7.17,0-9.9h0c2.73-2.74,7.16-2.74,9.9,0h0c2.73,2.73,2.73,7.16,0,9.9h0c-1.37,1.36-3.16,2.05-4.95,2.05h0c-1.79,0-3.59-.69-4.95-2.05ZM207.06,158.18c-2.73-2.73-2.73-7.16,0-9.9h0c2.74-2.73,7.17-2.73,9.91,0h0c2.73,2.74,2.73,7.17,0,9.9h0c-1.37,1.37-3.16,2.05-4.95,2.05h0c-1.8,0-3.59-.68-4.96-2.05Z"/><path d="M170.6,201.65c-1.85,0-3.65-.75-4.95-2.05-1.31-1.3-2.06-3.11-2.06-4.95,0-.45.05-.92.14-1.37.09-.44.23-.88.4-1.31.18-.42.39-.83.65-1.2.25-.39.54-.75.87-1.07,1.3-1.3,3.1-2.05,4.95-2.05s3.64.75,4.94,2.05c.33.32.62.68.87,1.07.26.37.47.78.65,1.2.17.43.31.87.4,1.31.09.45.14.92.14,1.37,0,1.84-.75,3.65-2.06,4.95-1.3,1.3-3.1,2.05-4.94,2.05Z"/><path d="M209.59,56.87c-.46,0-.92-.04-1.37-.14-.45-.09-.89-.22-1.31-.4-.42-.17-.83-.39-1.21-.64-.38-.25-.74-.55-1.06-.87-.32-.32-.62-.68-.87-1.06-.25-.38-.47-.79-.65-1.21-.17-.42-.31-.86-.4-1.31-.09-.45-.13-.91-.13-1.37,0-1.84.74-3.65,2.05-4.95.32-.32.68-.61,1.06-.87.38-.25.79-.47,1.21-.64.42-.18.86-.31,1.31-.4.9-.18,1.83-.18,2.74,0,.44.09.88.22,1.31.4.42.17.82.39,1.2.64.39.26.74.55,1.07.87,1.3,1.3,2.05,3.11,2.05,4.95,0,.46-.05.92-.14,1.37-.09.45-.22.89-.4,1.31-.17.42-.39.83-.64,1.21-.26.38-.55.74-.87,1.06-.33.32-.68.62-1.07.87-.38.25-.78.47-1.2.64-.43.18-.87.31-1.31.4-.46.1-.92.14-1.37.14Z"/><path d="M161.48,97.98c-2.73-2.74-2.73-7.17,0-9.9h0c2.74-2.74,7.17-2.74,9.9,0h0c2.74,2.73,2.74,7.16,0,9.9h0c-1.37,1.36-3.16,2.05-4.95,2.05h0c-1.79,0-3.58-.69-4.95-2.05ZM175.87,83.59c-2.74-2.73-2.74-7.16,0-9.9h0c2.73-2.73,7.16-2.73,9.9,0h0c2.73,2.74,2.73,7.17,0,9.9h0c-1.37,1.37-3.16,2.05-4.95,2.05h0c-1.79,0-3.59-.68-4.95-2.05ZM190.25,69.21c-2.73-2.74-2.73-7.17,0-9.9h0c2.74-2.74,7.17-2.74,9.9,0h0c2.74,2.73,2.74,7.16,0,9.9h0c-1.36,1.36-3.16,2.05-4.95,2.05h0c-1.79,0-3.58-.69-4.95-2.05Z"/><path d="M152.05,114.41c-.46,0-.92-.04-1.37-.13-.45-.09-.89-.23-1.31-.4-.42-.18-.83-.39-1.21-.65-.38-.25-.74-.55-1.06-.87-.33-.32-.62-.68-.87-1.06-.26-.38-.47-.79-.65-1.21-.17-.42-.31-.86-.4-1.31-.09-.45-.13-.91-.13-1.37s.04-.91.13-1.36c.09-.45.23-.89.4-1.31.18-.43.39-.83.65-1.21.25-.39.54-.74.87-1.07.32-.32.68-.61,1.06-.87.38-.25.79-.47,1.21-.64.42-.18.86-.31,1.31-.4.9-.18,1.83-.18,2.73,0,.45.09.89.22,1.31.4.43.17.83.39,1.21.64.39.26.74.55,1.07.87.32.33.61.68.87,1.07.25.38.46.78.64,1.21.17.42.31.86.4,1.31.09.45.14.91.14,1.36s-.05.92-.14,1.37c-.09.45-.23.89-.4,1.31-.18.42-.39.83-.64,1.21-.26.38-.55.74-.87,1.06-.33.32-.68.62-1.07.87-.38.26-.78.47-1.21.65-.42.17-.86.31-1.31.4-.45.09-.91.13-1.36.13Z"/><circle cx="51.36" cy="139.01" r="8.09"/><circle cx="103.73" cy="139.01" r="8.09"/><path d="M91.39,167.35h-27.68c-2.49,0-4.5-2.01-4.5-4.5s2.01-4.5,4.5-4.5h27.68c2.49,0,4.5,2.01,4.5,4.5s-2.01,4.5-4.5,4.5Z"/><path d="M77.55,306.49C34.79,306.49,0,273.91,0,233.87c0-21.59,10.38-42.13,28.01-55.86-7.92-9.96-12.23-22.06-12.23-34.58,0-31.93,27.71-57.9,61.77-57.9s61.77,25.98,61.77,57.9c0,12.51-4.31,24.62-12.23,34.58,17.62,13.73,28.01,34.27,28.01,55.86,0,40.04-34.79,72.61-77.55,72.61ZM77.55,94.53c-29.1,0-52.77,21.94-52.77,48.9,0,11.86,4.65,23.31,13.11,32.23.91.96,1.35,2.27,1.21,3.58-.14,1.31-.85,2.5-1.95,3.24-17.62,11.96-28.14,31.17-28.14,51.38,0,35.08,30.75,63.61,68.55,63.61s68.55-28.54,68.55-63.61c0-20.22-10.52-39.43-28.14-51.38-1.09-.74-1.8-1.92-1.95-3.24-.14-1.31.3-2.62,1.21-3.58,8.45-8.92,13.11-20.37,13.11-32.23,0-26.97-23.67-48.9-52.77-48.9Z"/></g></svg>