<?xml version="1.0" encoding="UTF-8"?><svg id="_レイヤー_2" xmlns="http://www.w3.org/2000/svg" viewBox="0 0 319.22 333.49"><g id="line"><path d="M241.51,200.54c-2.49,0-4.5-2.01-4.5-4.5v-12.12c0-2.49,2.01-4.5,4.5-4.5s4.5,2.01,4.5,4.5v12.12c0,2.49-2.01,4.5-4.5,4.5Z"/><path d="M254.3,333.49c-9.53,0-17.29-7.75-17.29-17.29v-61.75c0-2.49,2.01-4.5,4.5-4.5s4.5,2.01,4.5,4.5v61.75c0,4.57,3.72,8.29,8.29,8.29s8.29-3.72,8.29-8.29c0-2.49,2.01-4.5,4.5-4.5s4.5,2.01,4.5,4.5c0,9.53-7.75,17.29-17.29,17.29Z"/><path d="M285.76,266.02c-1.36,0-2.65-.62-3.5-1.67-2.76-3.42-6.86-5.39-11.25-5.39s-8.48,1.96-11.25,5.39c-.85,1.06-2.14,1.67-3.5,1.67s-2.65-.62-3.5-1.67c-2.76-3.42-6.86-5.39-11.25-5.39s-8.48,1.96-11.25,5.39c-.85,1.06-2.14,1.67-3.5,1.67h0c-1.36,0-2.65-.62-3.5-1.67-2.76-3.42-6.86-5.39-11.25-5.39s-8.48,1.96-11.25,5.39c-.85,1.06-2.14,1.67-3.5,1.67s-2.65-.62-3.5-1.67c-2.76-3.42-6.86-5.39-11.25-5.39-4.14,0-8.09,1.79-10.84,4.91-1.3,1.48-3.42,1.94-5.22,1.13-1.8-.81-2.86-2.69-2.63-4.64,4.72-39.23,38.11-68.82,77.68-68.82s72.96,29.58,77.68,68.82c.24,1.96-.83,3.84-2.63,4.64-1.8.8-3.91.35-5.22-1.13-2.75-3.12-6.7-4.91-10.84-4.91-4.38,0-8.48,1.96-11.25,5.39-.85,1.06-2.14,1.67-3.5,1.67ZM241.51,249.96c5.44,0,10.61,1.86,14.75,5.22,4.14-3.36,9.31-5.22,14.75-5.22s10.61,1.86,14.75,5.22c4.14-3.36,9.31-5.22,14.75-5.22,2.67,0,5.28.46,7.75,1.32-8.15-29.54-35.24-50.74-66.75-50.74s-58.6,21.2-66.75,50.74c2.47-.87,5.08-1.32,7.75-1.32,5.44,0,10.61,1.86,14.75,5.22,4.14-3.36,9.31-5.22,14.75-5.22s10.61,1.86,14.75,5.22c4.14-3.36,9.31-5.22,14.75-5.22Z"/><path d="M125.9,186.63c-33.49,0-60.73-27.24-60.73-60.73s27.24-60.73,60.73-60.73,60.73,27.24,60.73,60.73-27.24,60.73-60.73,60.73ZM125.9,74.17c-28.53,0-51.73,23.21-51.73,51.73s23.21,51.73,51.73,51.73,51.73-23.21,51.73-51.73-23.21-51.73-51.73-51.73Z"/><path d="M125.9,47.38c-2.49,0-4.5-2.01-4.5-4.5V4.5c0-2.49,2.01-4.5,4.5-4.5s4.5,2.01,4.5,4.5v38.38c0,2.49-2.01,4.5-4.5,4.5Z"/><path d="M125.9,251.8c-2.49,0-4.5-2.01-4.5-4.5v-38.38c0-2.49,2.01-4.5,4.5-4.5s4.5,2.01,4.5,4.5v38.38c0,2.49-2.01,4.5-4.5,4.5Z"/><path d="M84.4,58.51c-1.56,0-3.07-.81-3.9-2.25l-19.19-33.24c-1.24-2.15-.51-4.9,1.65-6.15,2.15-1.24,4.91-.5,6.15,1.65l19.19,33.24c1.24,2.15.51,4.9-1.65,6.15-.71.41-1.48.6-2.25.6Z"/><path d="M171.38,209.16c-1.56,0-3.07-.81-3.9-2.25l-3.96-6.86c-1.24-2.15-.51-4.9,1.65-6.15,2.15-1.24,4.9-.5,6.15,1.65l3.96,6.86c1.24,2.15.51,4.9-1.65,6.15-.71.41-1.48.6-2.25.6Z"/><path d="M54,88.89c-.76,0-1.54-.19-2.25-.6l-33.24-19.19c-2.15-1.24-2.89-4-1.65-6.15,1.24-2.15,3.99-2.89,6.15-1.65l33.24,19.19c2.15,1.24,2.89,4,1.65,6.15-.83,1.44-2.35,2.25-3.9,2.25Z"/><path d="M217.07,183.04c-.76,0-1.54-.19-2.25-.6l-19.28-11.13c-2.15-1.24-2.89-4-1.65-6.15,1.24-2.15,3.99-2.89,6.15-1.65l19.28,11.13c2.15,1.24,2.89,4,1.65,6.15-.83,1.44-2.35,2.25-3.9,2.25Z"/><path d="M42.88,130.4H4.5c-2.49,0-4.5-2.01-4.5-4.5s2.01-4.5,4.5-4.5h38.38c2.49,0,4.5,2.01,4.5,4.5s-2.01,4.5-4.5,4.5Z"/><path d="M247.31,130.4h-38.38c-2.49,0-4.5-2.01-4.5-4.5s2.01-4.5,4.5-4.5h38.38c2.49,0,4.5,2.01,4.5,4.5s-2.01,4.5-4.5,4.5Z"/><path d="M20.77,191.1c-1.56,0-3.07-.81-3.9-2.25-1.24-2.15-.51-4.9,1.65-6.15l33.24-19.19c2.15-1.24,4.9-.5,6.15,1.65,1.24,2.15.51,4.9-1.65,6.15l-33.24,19.19c-.71.41-1.48.6-2.25.6Z"/><path d="M197.8,88.89c-1.56,0-3.07-.81-3.9-2.25-1.24-2.15-.51-4.9,1.65-6.15l33.24-19.19c2.15-1.24,4.9-.5,6.15,1.65,1.24,2.15.51,4.9-1.65,6.15l-33.24,19.19c-.71.41-1.48.6-2.25.6Z"/><path d="M65.2,235.54c-.76,0-1.54-.19-2.25-.6-2.15-1.24-2.89-4-1.65-6.15l19.19-33.24c1.24-2.15,3.99-2.89,6.15-1.65,2.15,1.24,2.89,4,1.65,6.15l-19.19,33.24c-.83,1.44-2.35,2.25-3.9,2.25Z"/><path d="M167.41,58.51c-.76,0-1.54-.19-2.25-.6-2.15-1.24-2.89-4-1.65-6.15l19.19-33.24c1.24-2.15,3.99-2.89,6.15-1.65,2.15,1.24,2.89,4,1.65,6.15l-19.19,33.24c-.83,1.44-2.35,2.25-3.9,2.25Z"/><path d="M125.9,186.63c-33.49,0-60.73-27.24-60.73-60.73s27.24-60.73,60.73-60.73,60.73,27.24,60.73,60.73-27.24,60.73-60.73,60.73ZM125.9,74.17c-28.53,0-51.73,23.21-51.73,51.73s23.21,51.73,51.73,51.73,51.73-23.21,51.73-51.73-23.21-51.73-51.73-51.73Z"/></g></svg>