<?xml version="1.0" encoding="UTF-8"?><svg id="_レイヤー_2" xmlns="http://www.w3.org/2000/svg" viewBox="0 0 278.78 278.78"><g id="line"><path d="M139.39,206.37c-36.93,0-66.98-30.05-66.98-66.98s30.05-66.98,66.98-66.98,66.98,30.05,66.98,66.98-30.05,66.98-66.98,66.98ZM139.39,81.41c-31.97,0-57.98,26.01-57.98,57.98s26.01,57.98,57.98,57.98,57.98-26.01,57.98-57.98-26.01-57.98-57.98-57.98Z"/><path d="M139.39,206.37c-36.93,0-66.98-30.05-66.98-66.98s30.05-66.98,66.98-66.98,66.98,30.05,66.98,66.98-30.05,66.98-66.98,66.98ZM139.39,81.41c-31.97,0-57.98,26.01-57.98,57.98s26.01,57.98,57.98,57.98,57.98-26.01,57.98-57.98-26.01-57.98-57.98-57.98Z"/><path d="M139.39,51.65c-2.49,0-4.5-2.01-4.5-4.5V4.5c0-2.49,2.01-4.5,4.5-4.5s4.5,2.01,4.5,4.5v42.65c0,2.49-2.01,4.5-4.5,4.5Z"/><path d="M139.39,278.78c-2.49,0-4.5-2.01-4.5-4.5v-42.65c0-2.49,2.01-4.5,4.5-4.5s4.5,2.01,4.5,4.5v42.65c0,2.49-2.01,4.5-4.5,4.5Z"/><path d="M93.27,64.01c-1.56,0-3.07-.81-3.9-2.25l-21.32-36.93c-1.24-2.15-.51-4.9,1.65-6.15,2.15-1.24,4.9-.5,6.15,1.65l21.32,36.93c1.24,2.15.51,4.9-1.65,6.15-.71.41-1.48.6-2.25.6Z"/><path d="M206.84,260.71c-1.56,0-3.07-.81-3.9-2.25l-21.32-36.94c-1.24-2.15-.51-4.9,1.65-6.15,2.15-1.24,4.91-.5,6.15,1.65l21.32,36.94c1.24,2.15.51,4.9-1.65,6.15-.71.41-1.48.6-2.25.6Z"/><path d="M59.5,97.77c-.76,0-1.54-.19-2.25-.6l-36.94-21.33c-2.15-1.24-2.89-4-1.65-6.15,1.24-2.15,3.99-2.89,6.15-1.65l36.94,21.33c2.15,1.24,2.89,4,1.65,6.15-.83,1.44-2.35,2.25-3.9,2.25Z"/><path d="M256.21,211.34c-.76,0-1.54-.19-2.25-.6l-36.94-21.33c-2.15-1.24-2.89-4-1.65-6.15,1.24-2.15,3.99-2.89,6.15-1.65l36.94,21.33c2.15,1.24,2.89,4,1.65,6.15-.83,1.44-2.35,2.25-3.9,2.25Z"/><path d="M47.15,143.89H4.5c-2.49,0-4.5-2.01-4.5-4.5s2.01-4.5,4.5-4.5h42.65c2.49,0,4.5,2.01,4.5,4.5s-2.01,4.5-4.5,4.5Z"/><path d="M274.28,143.89h-42.65c-2.49,0-4.5-2.01-4.5-4.5s2.01-4.5,4.5-4.5h42.65c2.49,0,4.5,2.01,4.5,4.5s-2.01,4.5-4.5,4.5Z"/><path d="M22.58,211.34c-1.56,0-3.07-.81-3.9-2.25-1.24-2.15-.51-4.9,1.65-6.15l36.94-21.33c2.15-1.24,4.9-.5,6.15,1.65,1.24,2.15.51,4.9-1.65,6.15l-36.94,21.33c-.71.41-1.48.6-2.25.6Z"/><path d="M219.28,97.77c-1.56,0-3.07-.81-3.9-2.25-1.24-2.15-.51-4.9,1.65-6.15l36.94-21.33c2.15-1.24,4.91-.5,6.15,1.65,1.24,2.15.51,4.9-1.65,6.15l-36.94,21.33c-.71.41-1.48.6-2.25.6Z"/><path d="M71.94,260.71c-.76,0-1.54-.19-2.25-.6-2.15-1.24-2.89-4-1.65-6.15l21.32-36.94c1.24-2.15,3.99-2.89,6.15-1.65,2.15,1.24,2.89,4,1.65,6.15l-21.32,36.94c-.83,1.44-2.35,2.25-3.9,2.25Z"/><path d="M185.51,64.01c-.76,0-1.54-.19-2.25-.6-2.15-1.24-2.89-4-1.65-6.15l21.32-36.93c1.24-2.15,3.99-2.89,6.15-1.65,2.15,1.24,2.89,4,1.65,6.15l-21.32,36.93c-.83,1.44-2.35,2.25-3.9,2.25Z"/></g></svg>