<?xml version="1.0" encoding="UTF-8"?><svg id="_レイヤー_2" xmlns="http://www.w3.org/2000/svg" viewBox="0 0 313.3 333.49"><g id="line"><path d="M112.41,166.9c-30.04,0-54.48-24.44-54.48-54.48s24.44-54.48,54.48-54.48,54.48,24.44,54.48,54.48-24.44,54.48-54.48,54.48ZM112.41,66.93c-25.08,0-45.48,20.4-45.48,45.48s20.4,45.48,45.48,45.48,45.48-20.4,45.48-45.48-20.4-45.48-45.48-45.48Z"/><path d="M112.41,43.12c-2.49,0-4.5-2.01-4.5-4.5V4.5c0-2.49,2.01-4.5,4.5-4.5s4.5,2.01,4.5,4.5v34.12c0,2.49-2.01,4.5-4.5,4.5Z"/><path d="M112.41,224.83c-2.49,0-4.5-2.01-4.5-4.5v-34.12c0-2.49,2.01-4.5,4.5-4.5s4.5,2.01,4.5,4.5v34.12c0,2.49-2.01,4.5-4.5,4.5Z"/><path d="M75.52,53.01c-1.56,0-3.07-.81-3.9-2.25l-17.06-29.55c-1.24-2.15-.51-4.9,1.65-6.15,2.15-1.24,4.9-.5,6.15,1.65l17.06,29.55c1.24,2.15.51,4.9-1.65,6.15-.71.41-1.48.6-2.25.6Z"/><path d="M166.37,210.37c-1.56,0-3.07-.81-3.9-2.25l-17.06-29.55c-1.24-2.15-.51-4.9,1.65-6.15s4.91-.5,6.15,1.65l17.06,29.55c1.24,2.15.51,4.9-1.65,6.15-.71.41-1.48.6-2.25.6Z"/><path d="M48.5,80.02c-.76,0-1.54-.19-2.25-.6l-29.55-17.06c-2.15-1.24-2.89-4-1.65-6.15,1.24-2.15,3.99-2.89,6.15-1.65l29.55,17.06c2.15,1.24,2.89,4,1.65,6.15-.83,1.44-2.35,2.25-3.9,2.25Z"/><path d="M205.86,170.87c-.76,0-1.54-.19-2.25-.6l-29.55-17.06c-2.15-1.24-2.89-4-1.65-6.15s3.99-2.89,6.15-1.65l29.55,17.06c2.15,1.24,2.89,4,1.65,6.15-.83,1.44-2.35,2.25-3.9,2.25Z"/><path d="M38.62,116.91H4.5c-2.49,0-4.5-2.01-4.5-4.5s2.01-4.5,4.5-4.5h34.12c2.49,0,4.5,2.01,4.5,4.5s-2.01,4.5-4.5,4.5Z"/><path d="M220.33,116.91h-34.12c-2.49,0-4.5-2.01-4.5-4.5s2.01-4.5,4.5-4.5h34.12c2.49,0,4.5,2.01,4.5,4.5s-2.01,4.5-4.5,4.5Z"/><path d="M18.96,170.87c-1.56,0-3.07-.81-3.9-2.25-1.24-2.15-.51-4.9,1.65-6.15l29.55-17.06c2.15-1.24,4.9-.5,6.15,1.65,1.24,2.15.51,4.9-1.65,6.15l-29.55,17.06c-.71.41-1.48.6-2.25.6Z"/><path d="M176.33,80.02c-1.56,0-3.07-.81-3.9-2.25-1.24-2.15-.51-4.9,1.65-6.15l29.55-17.06c2.15-1.24,4.91-.5,6.15,1.65,1.24,2.15.51,4.9-1.65,6.15l-29.55,17.06c-.71.41-1.48.6-2.25.6Z"/><path d="M58.45,210.37c-.76,0-1.54-.19-2.25-.6-2.15-1.24-2.89-4-1.65-6.15l17.06-29.55c1.24-2.15,3.99-2.89,6.15-1.65,2.15,1.24,2.89,4,1.65,6.15l-17.06,29.55c-.83,1.44-2.35,2.25-3.9,2.25Z"/><path d="M149.31,53.01c-.76,0-1.54-.19-2.25-.6-2.15-1.24-2.89-4-1.65-6.15l17.06-29.55c1.24-2.15,3.99-2.89,6.15-1.65,2.15,1.24,2.89,4,1.65,6.15l-17.06,29.55c-.83,1.44-2.35,2.25-3.9,2.25Z"/><path d="M267.04,333.49h-119.55c-25.5,0-46.25-20.75-46.25-46.25,0-20.97,14.36-39.28,34.19-44.65-1.44-4.62-2.16-9.41-2.16-14.31,0-7.34,1.6-14.39,4.77-20.95,1.08-2.24,3.77-3.18,6.01-2.1,2.24,1.08,3.18,3.77,2.1,6.01-2.57,5.34-3.88,11.07-3.88,17.05,0,5.49,1.12,10.82,3.33,15.83.57,1.29.5,2.77-.18,4s-1.9,2.07-3.29,2.27c-18.18,2.62-31.88,18.47-31.88,36.86,0,20.54,16.71,37.25,37.25,37.25h119.55c20.54,0,37.25-16.71,37.25-37.25,0-17.42-11.84-32.33-28.79-36.28-1.18-.27-2.2-1.01-2.83-2.05s-.81-2.28-.51-3.46c.64-2.49.97-5.07.97-7.66,0-16.82-13.68-30.5-30.5-30.5-6.75,0-13.14,2.16-18.5,6.26-1.09.83-2.49,1.12-3.82.79s-2.43-1.24-3-2.49c-6.4-13.92-20.43-22.92-35.74-22.92-2.49,0-4.5-2.01-4.5-4.5s2.01-4.5,4.5-4.5c17.06,0,32.82,9.09,41.48,23.54,5.93-3.41,12.61-5.19,19.58-5.19,21.78,0,39.5,17.72,39.5,39.5,0,1.87-.13,3.74-.39,5.58,18.78,6.24,31.55,23.7,31.55,43.86,0,25.5-20.75,46.25-46.25,46.25Z"/><path d="M112.41,166.9c-30.04,0-54.48-24.44-54.48-54.48s24.44-54.48,54.48-54.48,54.48,24.44,54.48,54.48-24.44,54.48-54.48,54.48ZM112.41,66.93c-25.08,0-45.48,20.4-45.48,45.48s20.4,45.48,45.48,45.48,45.48-20.4,45.48-45.48-20.4-45.48-45.48-45.48Z"/></g></svg>