<?xml version="1.0" encoding="UTF-8"?><svg id="_レイヤー_2" xmlns="http://www.w3.org/2000/svg" viewBox="0 0 296.21 340.44"><g id="line"><path d="M125.9,186.63c-33.49,0-60.73-27.24-60.73-60.73s27.24-60.73,60.73-60.73,60.73,27.24,60.73,60.73-27.24,60.73-60.73,60.73ZM125.9,74.17c-28.52,0-51.73,23.21-51.73,51.73s23.21,51.73,51.73,51.73,51.73-23.21,51.73-51.73-23.21-51.73-51.73-51.73Z"/><path d="M125.9,47.38c-2.49,0-4.5-2.01-4.5-4.5V4.5c0-2.49,2.01-4.5,4.5-4.5s4.5,2.01,4.5,4.5v38.38c0,2.49-2.01,4.5-4.5,4.5Z"/><path d="M125.9,251.81c-2.49,0-4.5-2.01-4.5-4.5v-38.38c0-2.49,2.01-4.5,4.5-4.5s4.5,2.01,4.5,4.5v38.38c0,2.49-2.01,4.5-4.5,4.5Z"/><path d="M84.4,58.51c-1.55,0-3.07-.81-3.9-2.25l-19.19-33.24c-1.24-2.15-.5-4.9,1.65-6.15,2.15-1.24,4.9-.5,6.15,1.65l19.19,33.24c1.24,2.15.5,4.9-1.65,6.15-.71.41-1.48.6-2.25.6Z"/><path d="M176.7,218.38c-1.55,0-3.07-.81-3.9-2.25l-9.29-16.08c-1.24-2.15-.5-4.9,1.65-6.15,2.15-1.24,4.9-.5,6.15,1.65l9.29,16.08c1.24,2.15.5,4.9-1.65,6.15-.71.41-1.48.6-2.25.6Z"/><path d="M54,88.89c-.76,0-1.54-.19-2.25-.6l-33.24-19.19c-2.15-1.24-2.89-4-1.65-6.15,1.24-2.15,4-2.89,6.15-1.65l33.24,19.19c2.15,1.24,2.89,4,1.65,6.15-.83,1.44-2.35,2.25-3.9,2.25Z"/><path d="M201.9,174.29c-.76,0-1.54-.19-2.25-.6l-4.11-2.37c-2.15-1.24-2.89-4-1.65-6.15,1.24-2.15,4-2.89,6.15-1.65l4.11,2.37c2.15,1.24,2.89,4,1.65,6.15-.83,1.44-2.35,2.25-3.9,2.25Z"/><path d="M42.88,130.4H4.5c-2.49,0-4.5-2.01-4.5-4.5s2.01-4.5,4.5-4.5h38.38c2.49,0,4.5,2.01,4.5,4.5s-2.01,4.5-4.5,4.5Z"/><path d="M247.3,130.4h-38.38c-2.49,0-4.5-2.01-4.5-4.5s2.01-4.5,4.5-4.5h38.38c2.49,0,4.5,2.01,4.5,4.5s-2.01,4.5-4.5,4.5Z"/><path d="M20.77,191.11c-1.55,0-3.07-.81-3.9-2.25-1.24-2.15-.5-4.9,1.65-6.15l33.24-19.19c2.15-1.24,4.9-.5,6.15,1.65,1.24,2.15.5,4.9-1.65,6.15l-33.24,19.19c-.71.41-1.48.6-2.25.6Z"/><path d="M197.8,88.89c-1.55,0-3.07-.81-3.9-2.25-1.24-2.15-.5-4.9,1.65-6.15l33.24-19.19c2.15-1.24,4.9-.5,6.15,1.65,1.24,2.15.5,4.9-1.65,6.15l-33.24,19.19c-.71.41-1.48.6-2.25.6Z"/><path d="M65.2,235.54c-.76,0-1.54-.19-2.25-.6-2.15-1.24-2.89-4-1.65-6.15l19.19-33.24c1.24-2.15,4-2.89,6.15-1.65s2.89,4,1.65,6.15l-19.19,33.24c-.83,1.44-2.35,2.25-3.9,2.25Z"/><path d="M167.41,58.51c-.76,0-1.54-.19-2.25-.6-2.15-1.24-2.89-4-1.65-6.15l19.19-33.24c1.24-2.15,4-2.89,6.15-1.65s2.89,4,1.65,6.15l-19.19,33.24c-.83,1.44-2.35,2.25-3.9,2.25Z"/><path d="M223.36,213.7c0-3.35-2.72-6.07-6.07-6.07s-6.07,2.72-6.07,6.07,2.72,6.07,6.07,6.07,6.07-2.72,6.07-6.07Z"/><path d="M262.63,213.7c0-3.35-2.72-6.07-6.07-6.07s-6.07,2.72-6.07,6.07,2.72,6.07,6.07,6.07,6.07-2.72,6.07-6.07Z"/><path d="M247.3,236.08h-20.76c-2.49,0-4.5-2.01-4.5-4.5s2.01-4.5,4.5-4.5h20.76c2.49,0,4.5,2.01,4.5,4.5s-2.01,4.5-4.5,4.5Z"/><path d="M236.93,340.44c-32.69,0-59.29-24.94-59.29-55.58,0-16.18,7.6-31.58,20.56-42.08-5.66-7.5-8.73-16.47-8.73-25.74,0-24.57,21.29-44.55,47.45-44.55s47.45,19.99,47.45,44.55c0,9.27-3.07,18.25-8.73,25.74,12.96,10.5,20.56,25.91,20.56,42.08,0,30.65-26.6,55.58-59.29,55.58ZM236.93,181.47c-21.2,0-38.45,15.95-38.45,35.55,0,8.61,3.38,16.92,9.52,23.4.91.96,1.35,2.27,1.21,3.58s-.85,2.5-1.95,3.24c-12.91,8.76-20.61,22.82-20.61,37.61,0,25.69,22.56,46.58,50.29,46.58s50.29-20.9,50.29-46.58c0-14.79-7.71-28.85-20.61-37.61-1.09-.74-1.8-1.92-1.95-3.24s.3-2.62,1.21-3.58c6.14-6.48,9.52-14.79,9.52-23.4,0-19.6-17.25-35.55-38.45-35.55Z"/><path d="M125.9,186.63c-33.49,0-60.73-27.24-60.73-60.73s27.24-60.73,60.73-60.73,60.73,27.24,60.73,60.73-27.24,60.73-60.73,60.73ZM125.9,74.17c-28.52,0-51.73,23.21-51.73,51.73s23.21,51.73,51.73,51.73,51.73-23.21,51.73-51.73-23.21-51.73-51.73-51.73Z"/></g></svg>