<?xml version="1.0" encoding="UTF-8"?><svg id="_レイヤー_2" xmlns="http://www.w3.org/2000/svg" viewBox="0 0 371.79 233"><g id="line"><path d="M98.92,147.16c-26.6,0-48.24-21.64-48.24-48.24s21.64-48.24,48.24-48.24,48.24,21.64,48.24,48.24-21.64,48.24-48.24,48.24ZM98.92,59.69c-21.63,0-39.24,17.6-39.24,39.24s17.6,39.24,39.24,39.24,39.24-17.6,39.24-39.24-17.6-39.24-39.24-39.24Z"/><path d="M98.92,38.85c-2.49,0-4.5-2.01-4.5-4.5V4.5c0-2.49,2.01-4.5,4.5-4.5s4.5,2.01,4.5,4.5v29.85c0,2.49-2.01,4.5-4.5,4.5Z"/><path d="M98.92,197.85c-2.49,0-4.5-2.01-4.5-4.5v-29.85c0-2.49,2.01-4.5,4.5-4.5s4.5,2.01,4.5,4.5v29.85c0,2.49-2.01,4.5-4.5,4.5Z"/><path d="M66.64,47.51c-1.55,0-3.07-.81-3.9-2.25l-14.93-25.85c-1.24-2.15-.5-4.9,1.65-6.15,2.15-1.24,4.9-.5,6.15,1.65l14.93,25.85c1.24,2.15.5,4.9-1.65,6.15-.71.41-1.48.6-2.25.6Z"/><path d="M146.14,185.2c-1.55,0-3.07-.81-3.9-2.25l-14.93-25.85c-1.24-2.15-.5-4.9,1.65-6.15s4.9-.5,6.15,1.65l14.93,25.85c1.24,2.15.5,4.9-1.65,6.15-.71.41-1.48.6-2.25.6Z"/><path d="M43,71.14c-.76,0-1.54-.19-2.25-.6l-25.85-14.93c-2.15-1.24-2.89-4-1.65-6.15,1.24-2.15,4-2.89,6.15-1.65l25.85,14.93c2.15,1.24,2.89,4,1.65,6.15-.83,1.44-2.35,2.25-3.9,2.25Z"/><path d="M180.69,150.64c-.76,0-1.54-.19-2.25-.6l-25.86-14.93c-2.15-1.24-2.89-4-1.65-6.15,1.24-2.15,3.99-2.89,6.15-1.65l25.86,14.93c2.15,1.24,2.89,4,1.65,6.15-.83,1.44-2.35,2.25-3.9,2.25Z"/><path d="M34.35,103.42H4.5c-2.49,0-4.5-2.01-4.5-4.5s2.01-4.5,4.5-4.5h29.85c2.49,0,4.5,2.01,4.5,4.5s-2.01,4.5-4.5,4.5Z"/><path d="M193.35,103.42h-29.85c-2.49,0-4.5-2.01-4.5-4.5s2.01-4.5,4.5-4.5h29.85c2.49,0,4.5,2.01,4.5,4.5s-2.01,4.5-4.5,4.5Z"/><path d="M17.15,150.64c-1.55,0-3.07-.81-3.9-2.25-1.24-2.15-.5-4.9,1.65-6.15l25.85-14.93c2.15-1.24,4.9-.5,6.15,1.65,1.24,2.15.5,4.9-1.65,6.15l-25.85,14.93c-.71.41-1.48.6-2.25.6Z"/><path d="M154.85,71.14c-1.55,0-3.07-.81-3.9-2.25-1.24-2.15-.5-4.9,1.65-6.15l25.86-14.93c2.15-1.24,4.9-.5,6.15,1.65,1.24,2.15.5,4.9-1.65,6.15l-25.86,14.93c-.71.41-1.48.6-2.25.6Z"/><path d="M51.71,185.2c-.76,0-1.54-.19-2.25-.6-2.15-1.24-2.89-4-1.65-6.15l14.93-25.85c1.24-2.15,4-2.89,6.15-1.65,2.15,1.24,2.89,4,1.65,6.15l-14.93,25.85c-.83,1.44-2.35,2.25-3.9,2.25Z"/><path d="M131.21,47.51c-.76,0-1.54-.19-2.25-.6-2.15-1.24-2.89-4-1.65-6.15l14.93-25.85c1.24-2.15,3.99-2.89,6.15-1.65,2.15,1.24,2.89,4,1.65,6.15l-14.93,25.85c-.83,1.44-2.35,2.25-3.9,2.25Z"/><path d="M279.35,233h-98.76c-30.08,0-39.57-19.31-40.38-29.52-.13-1.67.67-3.28,2.09-4.17s3.22-.92,4.66-.08c.11.06,11.9,6.75,28.97,6.75h44.94v-14.76c0-1.67.93-3.21,2.41-3.98,1.48-.78,3.27-.67,4.65.28l53.98,37.27c1.62,1.12,2.33,3.16,1.74,5.04-.59,1.88-2.33,3.16-4.3,3.16ZM152.24,211.2c3.62,5.93,11.46,12.81,28.35,12.81h84.32l-35.04-24.2v10.69c0,2.49-2.01,4.5-4.5,4.5h-49.44c-9.69,0-17.85-1.87-23.69-3.8Z"/><circle cx="280.47" cy="55.05" r="7.08"/><circle cx="326.29" cy="55.05" r="7.08"/><path d="M315.49,80.41h-24.22c-2.49,0-4.5-2.01-4.5-4.5s2.01-4.5,4.5-4.5h24.22c2.49,0,4.5,2.01,4.5,4.5s-2.01,4.5-4.5,4.5Z"/><path d="M303.38,202.15c-37.72,0-68.42-28.75-68.42-64.1,0-18.88,8.99-36.85,24.28-48.97-6.79-8.73-10.47-19.27-10.47-30.16,0-28.25,24.5-51.23,54.61-51.23s54.61,22.98,54.61,51.23c0,10.89-3.69,21.43-10.47,30.16,15.29,12.12,24.28,30.09,24.28,48.97,0,35.34-30.69,64.1-68.42,64.1ZM303.38,16.69c-25.15,0-45.61,18.94-45.61,42.23,0,10.23,4.02,20.11,11.32,27.82.91.96,1.35,2.27,1.21,3.58-.14,1.31-.85,2.5-1.95,3.24-15.26,10.36-24.38,26.99-24.38,44.5,0,30.38,26.65,55.1,59.42,55.1s59.42-24.72,59.42-55.1c0-17.5-9.11-34.14-24.38-44.5-1.09-.74-1.8-1.92-1.95-3.24s.3-2.62,1.21-3.58c7.3-7.7,11.31-17.58,11.31-27.82,0-23.29-20.46-42.23-45.61-42.23Z"/><path d="M279.35,233h-98.76c-30.08,0-39.57-19.31-40.38-29.52-.13-1.67.67-3.28,2.09-4.17s3.22-.92,4.66-.08c.11.06,11.9,6.75,28.97,6.75h44.94v-14.76c0-1.67.93-3.21,2.41-3.98,1.48-.78,3.27-.67,4.65.28l53.98,37.27c1.62,1.12,2.33,3.16,1.74,5.04-.59,1.88-2.33,3.16-4.3,3.16ZM152.24,211.2c3.62,5.93,11.46,12.81,28.35,12.81h84.32l-35.04-24.2v10.69c0,2.49-2.01,4.5-4.5,4.5h-49.44c-9.69,0-17.85-1.87-23.69-3.8Z"/><path d="M98.92,147.16c-26.6,0-48.24-21.64-48.24-48.24s21.64-48.24,48.24-48.24,48.24,21.64,48.24,48.24-21.64,48.24-48.24,48.24ZM98.92,59.69c-21.63,0-39.24,17.6-39.24,39.24s17.6,39.24,39.24,39.24,39.24-17.6,39.24-39.24-17.6-39.24-39.24-39.24Z"/></g></svg>