<?xml version="1.0" encoding="UTF-8"?><svg id="_レイヤー_2" xmlns="http://www.w3.org/2000/svg" viewBox="0 0 336.52 333.49"><g id="line"><path d="M112.41,166.9c-30.04,0-54.48-24.44-54.48-54.48s24.44-54.48,54.48-54.48,54.48,24.44,54.48,54.48-24.44,54.48-54.48,54.48ZM112.41,66.93c-25.08,0-45.48,20.4-45.48,45.48s20.4,45.48,45.48,45.48,45.48-20.4,45.48-45.48-20.4-45.48-45.48-45.48Z"/><path d="M112.41,43.12c-2.49,0-4.5-2.01-4.5-4.5V4.5c0-2.49,2.01-4.5,4.5-4.5s4.5,2.01,4.5,4.5v34.12c0,2.49-2.01,4.5-4.5,4.5Z"/><path d="M112.41,224.83c-2.49,0-4.5-2.01-4.5-4.5v-34.12c0-2.49,2.01-4.5,4.5-4.5s4.5,2.01,4.5,4.5v34.12c0,2.49-2.01,4.5-4.5,4.5Z"/><path d="M75.52,53.01c-1.56,0-3.07-.81-3.9-2.25l-17.06-29.55c-1.24-2.15-.51-4.9,1.65-6.15,2.15-1.24,4.9-.5,6.15,1.65l17.06,29.55c1.24,2.15.51,4.9-1.65,6.15-.71.41-1.48.6-2.25.6Z"/><path d="M166.37,210.37c-1.56,0-3.07-.81-3.9-2.25l-17.06-29.55c-1.24-2.15-.51-4.9,1.65-6.15,2.15-1.24,4.9-.5,6.15,1.65l17.06,29.55c1.24,2.15.51,4.9-1.65,6.15-.71.41-1.48.6-2.25.6Z"/><path d="M48.5,80.02c-.76,0-1.54-.19-2.25-.6l-29.55-17.06c-2.15-1.24-2.89-4-1.65-6.15s3.99-2.89,6.15-1.65l29.55,17.06c2.15,1.24,2.89,4,1.65,6.15-.83,1.44-2.35,2.25-3.9,2.25Z"/><path d="M205.86,170.87c-.76,0-1.54-.19-2.25-.6l-29.55-17.06c-2.15-1.24-2.89-4-1.65-6.15,1.24-2.15,3.99-2.89,6.15-1.65l29.55,17.06c2.15,1.24,2.89,4,1.65,6.15-.83,1.44-2.35,2.25-3.9,2.25Z"/><path d="M38.62,116.91H4.5c-2.49,0-4.5-2.01-4.5-4.5s2.01-4.5,4.5-4.5h34.12c2.49,0,4.5,2.01,4.5,4.5s-2.01,4.5-4.5,4.5Z"/><path d="M220.33,116.91h-34.12c-2.49,0-4.5-2.01-4.5-4.5s2.01-4.5,4.5-4.5h34.12c2.49,0,4.5,2.01,4.5,4.5s-2.01,4.5-4.5,4.5Z"/><path d="M18.96,170.87c-1.56,0-3.07-.81-3.9-2.25-1.24-2.15-.51-4.9,1.65-6.15l29.55-17.06c2.15-1.24,4.9-.5,6.15,1.65,1.24,2.15.51,4.9-1.65,6.15l-29.55,17.06c-.71.41-1.48.6-2.25.6Z"/><path d="M176.33,80.02c-1.56,0-3.07-.81-3.9-2.25-1.24-2.15-.51-4.9,1.65-6.15l29.55-17.06c2.15-1.24,4.91-.5,6.15,1.65,1.24,2.15.51,4.9-1.65,6.15l-29.55,17.06c-.71.41-1.48.6-2.25.6Z"/><path d="M58.45,210.37c-.76,0-1.54-.19-2.25-.6-2.15-1.24-2.89-4-1.65-6.15l17.06-29.55c1.24-2.15,3.99-2.89,6.15-1.65s2.89,4,1.65,6.15l-17.06,29.55c-.83,1.44-2.35,2.25-3.9,2.25Z"/><path d="M149.31,53.01c-.76,0-1.54-.19-2.25-.6-2.15-1.24-2.89-4-1.65-6.15l17.06-29.55c1.24-2.15,3.99-2.89,6.15-1.65,2.15,1.24,2.89,4,1.65,6.15l-17.06,29.55c-.83,1.44-2.35,2.25-3.9,2.25Z"/><path d="M234.41,156.22c-2.49,0-4.5-2.01-4.5-4.5v-16.16c0-2.49,2.01-4.5,4.5-4.5s4.5,2.01,4.5,4.5v16.16c0,2.49-2.01,4.5-4.5,4.5Z"/><path d="M251.46,333.49c-11.88,0-21.55-9.67-21.55-21.55v-82.33c0-2.49,2.01-4.5,4.5-4.5s4.5,2.01,4.5,4.5v82.33c0,6.92,5.63,12.55,12.55,12.55s12.55-5.63,12.55-12.55c0-2.49,2.01-4.5,4.5-4.5s4.5,2.01,4.5,4.5c0,11.88-9.67,21.55-21.55,21.55Z"/><path d="M293.41,243.53h0c-1.36,0-2.65-.62-3.5-1.67-3.97-4.92-9.86-7.74-16.16-7.74s-12.19,2.82-16.16,7.74c-.85,1.06-2.14,1.67-3.5,1.67h0c-1.36,0-2.65-.62-3.5-1.67-3.97-4.92-9.86-7.74-16.16-7.74s-12.19,2.82-16.16,7.74c-.85,1.06-2.14,1.67-3.5,1.67h0c-1.36,0-2.65-.62-3.5-1.67-3.97-4.92-9.86-7.74-16.16-7.74s-12.19,2.82-16.16,7.74c-.85,1.06-2.14,1.67-3.5,1.67s-2.65-.62-3.5-1.67c-3.97-4.92-9.86-7.74-16.16-7.74-5.95,0-11.62,2.57-15.58,7.05-1.3,1.48-3.42,1.94-5.21,1.13-1.8-.8-2.86-2.69-2.63-4.64,1.23-10.2,3.97-20.12,8.15-29.49,1.01-2.27,3.68-3.28,5.94-2.27,2.27,1.01,3.29,3.67,2.27,5.94-2.31,5.18-4.14,10.55-5.48,16.05,3.89-1.81,8.16-2.78,12.53-2.78,7.33,0,14.27,2.66,19.67,7.43,5.4-4.77,12.34-7.43,19.67-7.43s14.27,2.66,19.67,7.43c5.4-4.77,12.34-7.43,19.67-7.43s14.27,2.66,19.67,7.43c5.4-4.77,12.34-7.43,19.67-7.43s14.27,2.66,19.67,7.43c5.4-4.77,12.34-7.43,19.67-7.43,4.38,0,8.65.97,12.53,2.78-10.03-41.54-47.47-71.67-91.2-71.67-4.5,0-9.02.32-13.44.96-2.47.35-4.74-1.36-5.09-3.82-.35-2.46,1.36-4.74,3.82-5.09,4.85-.69,9.8-1.05,14.72-1.05,52,0,95.88,38.88,102.08,90.43.24,1.96-.83,3.84-2.63,4.64s-3.91.35-5.21-1.13c-3.95-4.48-9.63-7.05-15.58-7.05-6.3,0-12.19,2.82-16.16,7.74-.85,1.06-2.14,1.67-3.5,1.67Z"/><path d="M112.41,166.9c-30.04,0-54.48-24.44-54.48-54.48s24.44-54.48,54.48-54.48,54.48,24.44,54.48,54.48-24.44,54.48-54.48,54.48ZM112.41,66.93c-25.08,0-45.48,20.4-45.48,45.48s20.4,45.48,45.48,45.48,45.48-20.4,45.48-45.48-20.4-45.48-45.48-45.48Z"/></g></svg>