<?xml version="1.0" encoding="UTF-8"?><svg id="_レイヤー_2" xmlns="http://www.w3.org/2000/svg" viewBox="0 0 237.44 253.63"><g id="line"><path d="M93.18,253.63c-.7,0-1.4-.16-2.05-.5-1.91-.98-2.86-3.17-2.27-5.24l17.49-61.48h-33.2c-1.32,0-2.57-.58-3.43-1.58-.85-1-1.23-2.33-1.02-3.63l13.62-84.61c.35-2.18,2.23-3.79,4.44-3.79h48.26c1.38,0,2.69.64,3.54,1.72.85,1.09,1.16,2.51.83,3.85l-13.19,53.74h40.45c1.73,0,3.3.99,4.05,2.54.75,1.56.55,3.4-.53,4.76l-73.47,92.52c-.88,1.1-2.19,1.7-3.53,1.7ZM78.42,177.41h33.88c1.41,0,2.74.66,3.59,1.79.85,1.13,1.12,2.59.74,3.94l-12.95,45.53,53.65-67.57h-36.87c-1.38,0-2.69-.64-3.54-1.72-.85-1.09-1.16-2.51-.83-3.85l13.19-53.74h-38.68l-12.17,75.61Z"/><path d="M185.97,171.62c-2.49,0-4.5-2.01-4.5-4.5s2.01-4.5,4.5-4.5c23.42,0,42.47-19.05,42.47-42.47,0-19.86-13.5-36.87-32.82-41.36-1.18-.27-2.2-1.01-2.83-2.05-.63-1.04-.81-2.28-.51-3.46.74-2.84,1.11-5.79,1.11-8.76,0-19.23-15.64-34.87-34.87-34.87-7.71,0-15.03,2.47-21.15,7.15-1.09.83-2.49,1.12-3.82.79-1.33-.33-2.43-1.24-3-2.49-7.3-15.86-23.28-26.11-40.72-26.11-24.71,0-44.81,20.1-44.81,44.81,0,6.26,1.28,12.33,3.79,18.04.57,1.29.5,2.77-.18,4s-1.9,2.07-3.29,2.27c-20.72,2.99-36.35,21.06-36.35,42.03,0,23.42,19.05,42.47,42.47,42.47,2.49,0,4.5,2.01,4.5,4.5s-2.01,4.5-4.5,4.5c-28.38,0-51.47-23.09-51.47-51.47,0-23.54,16.25-44.07,38.62-49.84-1.72-5.31-2.58-10.84-2.58-16.49C36.03,24.14,60.17,0,89.84,0c19.18,0,36.89,10.32,46.47,26.69,6.71-3.97,14.3-6.04,22.22-6.04,24.19,0,43.87,19.68,43.87,43.87,0,2.24-.17,4.47-.51,6.67,21.14,6.82,35.55,26.36,35.55,48.95,0,28.38-23.09,51.47-51.47,51.47Z"/></g></svg>