<?xml version="1.0" encoding="UTF-8"?><svg id="_レイヤー_2" xmlns="http://www.w3.org/2000/svg" viewBox="0 0 210.03 245.54"><g id="line"><path d="M82.53,224.27c-.7,0-1.4-.16-2.05-.5-1.91-.98-2.86-3.17-2.27-5.24l15.2-53.42h-28.5c-1.32,0-2.57-.58-3.43-1.58-.85-1-1.23-2.33-1.02-3.63l11.98-74.46c.35-2.18,2.23-3.79,4.44-3.79h42.47c1.38,0,2.69.64,3.54,1.72.85,1.09,1.16,2.51.83,3.85l-11.44,46.62h34.91c1.73,0,3.3.99,4.05,2.54.75,1.56.55,3.4-.53,4.76l-64.65,81.42c-.88,1.1-2.19,1.7-3.53,1.7ZM70.19,156.12h29.18c1.41,0,2.74.66,3.59,1.79.85,1.13,1.12,2.59.74,3.94l-10.66,37.46,44.84-56.46h-31.33c-1.38,0-2.69-.64-3.54-1.72-.85-1.09-1.16-2.51-.83-3.85l11.44-46.62h-32.89l-10.54,65.46Z"/><path d="M8.21,245.54c-.42,0-.84-.06-1.26-.18-2.39-.7-3.75-3.2-3.06-5.58l20.48-70.11c.7-2.39,3.2-3.76,5.58-3.06,2.39.7,3.75,3.2,3.06,5.58l-20.48,70.11c-.57,1.96-2.37,3.24-4.32,3.24Z"/><path d="M46.69,245.54c-.42,0-.85-.06-1.28-.19-2.38-.71-3.74-3.21-3.04-5.59l2.39-8.06c.71-2.38,3.21-3.74,5.59-3.04,2.38.71,3.74,3.21,3.04,5.59l-2.39,8.06c-.58,1.96-2.37,3.22-4.31,3.22Z"/><path d="M56.1,213.27c-.42,0-.85-.06-1.27-.18-2.38-.7-3.75-3.2-3.05-5.59l5.68-19.33c.7-2.38,3.2-3.75,5.59-3.05,2.38.7,3.75,3.2,3.05,5.59l-5.68,19.33c-.58,1.96-2.37,3.23-4.32,3.23Z"/><path d="M116.36,245.54c-.42,0-.84-.06-1.27-.18-2.39-.7-3.75-3.2-3.06-5.58l10.94-37.4c.7-2.39,3.2-3.75,5.58-3.06,2.39.7,3.75,3.2,3.06,5.58l-10.94,37.4c-.57,1.96-2.37,3.24-4.32,3.24Z"/><path d="M151.29,245.54c-.42,0-.84-.06-1.26-.18-2.39-.7-3.75-3.2-3.06-5.58l20.5-70.11c.7-2.39,3.2-3.75,5.58-3.06,2.39.7,3.75,3.2,3.06,5.58l-20.5,70.11c-.57,1.96-2.37,3.24-4.32,3.24Z"/><path d="M164.19,152.1c-2.49,0-4.5-2.01-4.5-4.5s2.01-4.5,4.5-4.5c20.31,0,36.84-16.53,36.84-36.84,0-17.22-11.7-31.97-28.46-35.87-1.18-.27-2.2-1.01-2.83-2.05-.63-1.04-.81-2.28-.51-3.46.64-2.46.96-5.01.96-7.57,0-16.62-13.52-30.15-30.15-30.15-6.67,0-12.99,2.14-18.28,6.18-1.09.83-2.49,1.12-3.82.79-1.33-.33-2.43-1.24-3-2.49-6.33-13.77-20.21-22.66-35.34-22.66-21.44,0-38.89,17.45-38.89,38.89,0,5.43,1.11,10.7,3.29,15.66.57,1.29.5,2.77-.18,4s-1.9,2.07-3.29,2.27c-17.97,2.59-31.53,18.26-31.53,36.45,0,20.31,16.52,36.84,36.84,36.84,2.49,0,4.5,2.01,4.5,4.5s-2.01,4.5-4.5,4.5c-25.27,0-45.84-20.56-45.84-45.84,0-20.77,14.21-38.9,33.84-44.24-1.41-4.56-2.13-9.3-2.13-14.14C31.71,21.48,53.19,0,79.6,0c16.89,0,32.5,8.99,41.08,23.29,5.87-3.36,12.48-5.12,19.36-5.12,21.58,0,39.15,17.56,39.15,39.15,0,1.84-.13,3.68-.38,5.5,18.59,6.2,31.23,23.49,31.23,43.45,0,25.27-20.56,45.84-45.84,45.84Z"/></g></svg>